<mxfile host="65bd71144e">
    <diagram id="KGkSF-2NRsayOe7veOXy" name="Page-1">
        <mxGraphModel dx="1788" dy="2264" grid="1" gridSize="10" guides="1" tooltips="1" connect="1" arrows="1" fold="1" page="1" pageScale="1" pageWidth="850" pageHeight="1100" math="0" shadow="0">
            <root>
                <mxCell id="0"/>
                <mxCell id="1" parent="0"/>
                <mxCell id="2" value="" style="shape=image;verticalLabelPosition=bottom;labelBackgroundColor=default;verticalAlign=top;aspect=fixed;imageAspect=0;image=data:image/png,iVBORw0KGgoAAAANSUhEUgAABRkAAAEHCAYAAAAqFUF+AAAAAXNSR0IArs4c6QAAAARnQU1BAACxjwv8YQUAAAAJcEhZcwAAITcAACE3ATNYn3oAAAASdEVYdFNvZnR3YXJlAEdyZWVuc2hvdF5VCAUAAEEeSURBVHhe7d0LsBTVncfx1RUttEyphZSsJdnStXSxdoVaWZMqUsZSA0FjNCiyrqIGMCoCCwpuWJSIgo9g1LiCIQRDIIEsEMIjIKhRQEyAXXmz4AMM+IAF5SGBBDFn+R36jGf69tx7Z3q6Z3rm+6n6F9zunrkzfXtmun9zHn9lAAAAAAAAACAGQkYAAAAAAAAAsRAyAgAAAAAAAIiFkBEAAAAAAABALISMAAAAAAAAAGIhZAQAAAAAAAAQCyEjAAAAAAAAgFiKChn/+7//m6IoiqIoiqIoiqIoiqKoGq9iETJSFEVRFEVRFEVRFEVRFJVXxSopZAQAAAAAAABQewgZAQAAAAAAAMRCyAgAAAAAAAAgFkJGAAAAAAAAALEQMgIAAAAAAACIhZARAAAAAAAAQCyEjAAAAAAAAABiIWQEAAAAAAAAEAshIwAAAAAAAIBYCBkBAAAAAAAAxELICAAAAAAAACAWQkYAAAAAAAAAsRAyAgAAAAAAAIiFkBEAAAAAAABALISMAAAAAAAAAGIhZAQAAAAAAAAQCyEjAAAAAAAAgFgIGQEAAAAAAADEQsgIAAAAAAAAIBZCRgAAAAAAAACxEDICAAAAAAAAiIWQEQAAAAAAAEAshIwAAAAAAAAAYiFkBAAAAAAAABALISMAAAAAAACAWAgZAQAAAAAAAMRCyAgAAAAAAAAgFkJGAAAAAAAAALEQMgIAasL+/fvNSy+9ZOuPf/xjsLR4W7ZsMb/+9a/NunXrzF/+8pdgKYBiffLJJ2bOnDnmZz/7mZk/f77ZunVrsAYAAAC1iJARAFATbrvtNnP55Zfb6tWrV7C0OAoW3X2oZs6cGawB0FwK58eOHWs6d+6c93pSjRgxwnz22WfBlgAAAKglhIwAappr3TZx4sRmlVrdKGiK0xKuGuk5zZ07t0EpRHvsscfMhAkTIterdNtqpxZS4TCjlFZTzz33XN59DBo0KFgDn1p7Tps2LfI1lEQtWLCg5l6Ttezxxx/Pex2Fa+nSpcGWAAAAqCWEjEfowuXf/u3fcie/kyZNanYXuf/93/813/zmN+3tRo4cGSxFU7SvtM/+9V//1ezcuTNYCpTf7bffnnttF1NXXHGFGTdunPn000+De8qu3/zmN5HPsZhS+FrN3nzzzQaPedOmTcHa5nvqqafy7uOOO+4I1sDR556/j9KqO++8M3gEqGa//e1v8/5uei+95ppr8patWrUq2BoAAAC1hJDxiHDI+I1vfMOsXLkyWNs4QsbSEDKWbtu2bebgwYPBT2jM//3f/+Ve16VWnz59zPvvvx/cYzYNGDAg8rkVU3fffXdwb9WJkDE9zz//fN4+SrOy/HmhFsHvvvtu8FNt0vlU9+7d8/5my5YtM6tXr7af91//+tdtK0cAAADUJkLGI8Iho0otJvbs2RNsURghY2kIGYt36NAh8/DDD9v9dvXVV5tFixYFa1BIVPBUSn3729/OdIvGBx98MPJ5FVPDhw8P7q06ETKm5wc/+EHePkqzNm7cGDyKbPFfg9X+WopjzJgxeX8vfcEBAACA+kHIeERUyKj68Y9/3GS3aULG0hAyFkctFwcOHJh3fKoLmsYaRGHlChlVej/IKrV+7d+/f+Tzak7169ev6meFJWRMDyFjcfT6Cz+PNWvWBGtrx5/+9CfTpUuXvOfJl2EAAAD1hZDxCD9kVHDjZkNsTrdpQsbSEDI2n45PtazV/gqXjtf58+cHWyLsrbfearDPmgqedDy+8sorpmfPnnm369q1qzl8+HCwVTbpSxO/wsfV0KFDG2yjygJCxvSEQ8akxkqM+ptmMWTUe3T4eWjinFrz6quv5j3Ha6+9NvPvmQAAACgOIeMRfsio0OuHP/yhDW/0c69evcxHH30UbNkQIWNpCBmb55NPPikYMPo1Y8aM4BbwlRIyOps3b25wW4UetULdv8Otjn76058Ga7OHkDE9hIzF0ezt/nP4l3/5l2BNbXGf6644JwIAAKg/hIxHhENGdQu89957cyfKCh0LteZpbsh44MABO8Nr79697cDn2v5rX/uaDTGnTJli9u/fH2zZkDtx12P8+OOPzU9+8hM7Jp+W6WJlwoQJtpvS5MmT7TIX3Ok+x44dmxuEXcHprbfealtVuPHl9Lw0GP19992Xe1xXXXWVeeSRR5ocoF5dwHT/avHlbqvSLJJ9+/a1M0wWGseOkLFpChh1vLj92lRNnTo1uCWcuMFTeAKDmTNnBmuyL2rfLF26NFibPYSM6WksZHzvvffMiBEj7Fh8+syLo9pDxv/5n/+x47Xqc7yx7s833XRT3nPQ56tPQzGo1d+oUaPM3r17g6XZsHjxYjtsx8KFC21rb/956rWkdc2dSA8AAADZR8h4RDhkVOili9NvfetbdpkCNM2OGKU5IaOe+3XXXZc78Y4q3YdO1qPCTBfIKbj73ve+1+C2uqBTmOeHjLqvxn6nZndU8Pnss8/mWm2GS89//fr1waP4nH6XwkWFpFG380sXn5rhN4yQsWkKt8P7s7HS31EX+PhcnJaMctttt+XdNsvjMobNmzcv77mpsvxaJGRMT2MhY3jsT32JVapqDhmXL1+eG1pFpS8k9GVfmN6T/cevmjNnTrDW2C/j/HWazX7fvn3B2ur2X//1X3mPvbFatWpVcCsAAADUMkLGI6JCRlGrpaa6TTcVMmpsN7/lorZRiwf9Dv2rn11Yp+20fZgL5Fzpgk4tAz788EPbCnL16tV2Oxcy6n70mHS/ChPfeecdG/TpwkatJbSNukmqpYme3+23324vdLSNLuo0Lpt73go21aLOUQg6adKk3GPR/vr1r39tH4uek36Xuly636OKaglKyNi0e+65J7cPm1tqTYLPxQkZFab7IYKqlibaCYdp+lIiywgZ09NYyBj+8mnu3LnBmmgK5jZs2BD8lK9aQ0Z96RgeakAVNc5iVJj/hz/8IVhrzNNPP91gvfZnY70bqsXo0aMbPPZCpf0AAACA2kfIeEShkFEXP9/97ndzJ8lPPPFEg+6/jYWMCiUVTmqdgj8FFFEtFdUiwrWa1IW+gjqfHzLq4mPPnj3BmnwuZHS/Lyqw1MDs/sXRoEGD8kJE0fMePHiwXa+uz7rQc95//33bRVvr1E1s165dwZp8uo1rSantdu/eHaw5ipCxaX6Y25xSsHvo0KHg1pA4IaOGIQjf1g8Hsk5fIPjPTV8uZBkhY3oaCxkffPDBvHUaVqMQtabXl136vHrjjTeCpZ+rxpBRX/BFBYxqwRmlqfEY9Z7ir3elfar9U81mzZplh1eJevx+DRw40KxYsSK4FQAAAGoZIeMRhUJGUeDnwjJdCKkbsq+xkFEt/NxJtrpZRgWMjt9qUmMu+vyQUfdZiB8yui7UYWqt6EJCzZ69du3aYE0+/76WLFkSLDW265vGdVT4uGDBgmBpQ/rd999/v719VJBIyNg0hclqmaiwceLEiU2WAjXkiwoZFRopXC9UWu9Cf790oVwr9F5US5O+CCFjepqa+EXvWWrBXujzRRSg+UG3jsfwsCTVFjLq+YTHHVTdcMMNtjV/lKbGY5TZs2fnbePq7rvvjuyCXU0+++wzO37zzTffnPfY1ctCy5sa2xkAAAC1hZDxiMZCRvEDQI3R5o8xWChk9EM2rdd2jfFbCKpFhB6T4wK5K6+8stFxjfxgsFAYqbGedEGobfRvobGf1OLR3ZcfMhajsSCRkBFpiAopSim9/mspxNWXJ+Hn+Prrrwdrs4mQMT1NhYxN0edbuCWtSsMT+JMPVVPIqM8pfQaHH48+twsFjGrFGd7eH4/RF9WtWqUvDKudgtDw466lVt8AAABoPkLGI5oKGRUYDh8+PHfyrHEOXSvBQiGj7tMNgB/VXTisscfgArlw1+WwQq0Pff7v0b/6OYpu39R9+dSaQd3DNdvmz3/+c3vR6cbmImREpeh9xx3HcUsTO9TK5AWaYT78/LL+OoxqtVpKIPXkk0/m3UexAVo9KCZkDI8tqOE5tL1/e78U6L/22mt222oKGf/zP/+zwWNRq/7GXjdNjccYpt4B4e2buk01UBdy//GqlwQAAADqEyHjEU2FjKIWCeoSpW388Q4LhYy6D92XljcW5vkKhYnNDeTSDBnVlVczS6o1ih6v2zaqCBlRKWrJFj4e45TGHys0DmmWhGcuz/qkL6LWZP5zUmlCq2Lde++9efdx3333BWvgNDdkXLRokR0rdvPmzfZnBYzf+c538m4bVRr/WKopZAzPAq1SIKrnWEhT4zH69MVl+NhTaeiGP//5z8FW1ekXv/hF3mPW8wAAAEB9ImQ8ojkho7zwwgu5btO33HKLvahNImRUiyl1n3aqKWTUWG5qnVFosHctV/CoANJNmkPIiEqJCiniVi1cQPfr1y/vOf3Hf/xHsCa7FNL4z0k1bty4YG3zufdzVwqKkK85IaO637vW7Aoa169fb3r37p13u0Kl+5dqChnFDYHil84JNLxIlOaMxyg6djXxkr+tym/VWc2GDRuW97jD40oDAACgfhAyHtHckDGq27QGgk+ru3Q1hIzqFqWuUFquC8h77rnHho5bt25tcF+NPW5Cxqap9Y9aUWmcMve3KFTdunUzv/nNb4Jbwokzu7S6eep9S7Pfhu8jPAN8ltTipC+O3mv956UvbIqZOMMfi9aVxuRFvqZCxuXLlzfrfatQVWNLRmksDPzd734XbHVU1HiMc+fODdbmKxReltIStxLCE2WFx3fV2M9q7eh3k+/Zs2eDsaq1z/SZp3OqWnlPAgAAqDeEjEc0FvCFffDBB7lZFNVt+tlnn40MGXUxUuzEL7og1vaFJn6pdMio56RB6LVMIcVLL71kl0c5ePCgnalX2xIyluaZZ57J/Q2aU7oo9VvAIl7I6Og1ohDXv49CkzdkgcJr/7mosj7pi6NZ/MPPTcuaQ2Gkew/2S2PNIl9jIaMCxnCIXWxVa8go+hyM6tYcDrSjxmPUl3FhhbphN/b5Wk2iwtTwhHJqwalu8uGWrFdffXVuzE6dW11//fV562thaAoAAIB6Q8h4RDEho+jkP+oiyg8ZRTM8u3W60FULokKmT5+e2/ZHP/pRsPSoagkZ/dtqbCl/lu0wtfRyrRvC3b+FkLFpQ4YMyf0NmltZafmSlqiQopQZh8PdAbPchTZqcolaeQ1u3769QQs6/awW2I05fPhwg/HzVGq5joYaCxn15Zu/rpTS5DtSjSGjKEwcOHBgg8fmh4iPPvpo3rpC4zHqi0p/O5WGZsmK8CRSak1ciM6B/v3f/z1v+1mzZtkvJaO60uv1DAAAgGwhZDyi2JBRLRn0zXz4hDgcMqoFTK9evew6XXgpnIwKGtXywwVymoAh3BWzWkJGv3WiQtZw9zBnx44deV1Mo1pyEjI2TWNxuX3YnNJMpwpL8LlytGQUd7y6Gjx4cLAme8Kz5NbCpC++CRMm5D0/VxqfUe/dYQqGoiYj6dq1q21dhYYaCxn95aVWNbdkdPR56AeN4c//5o7HqPME1xtCLRizNuzF6NGj856nWuA3RhPl+NsryJ86dWqDVsTqNQEAAIDsIWQ8otiQUfxu067CFxmiWahdyw6NYaht1qxZY3+HBsLXuI5ucHz9+8tf/jK45eeaG8ilMSajxifThZCW68Jo4sSJ9iLdPZ+nnnqqwaQwhIylUysPf18Wqh49etiJiJCvHC0ZP/vsM9sKyb+PsWPHBmuzJzzGZC1M+uLT3yuqlZlK701ap7+fQh99CeTez8L18ssvB/eIsMZCRn0mxC33BVY1h4yiLw3Venzx4sV5XyAWMx6jKGjUZ+sf/vCHYEl2hIeSKPTlo6MZxv3t9QWr3l+1D3QusWrVKnuO1FjPDwAAAFQvQsYjSgkZxQ8QVVEho2i8M82u6baLKq0v1NKxmkJGXSA88MADuXVRpbBUXcBct0xdxOsizEfI2HwzZszI27/hUgsQupVFK0dLRn8oA1dZGS8tTO8vV155Zd5zqcUJFjTR1m233Zb3PIup8ePHB/eEKE1N/FIu1R4yFtLc8RizTqGo/xw1NIFaeDbl7rvvzrtdVt9PAQAA0BAh4xGlhozqeqeWiO5EuVDIKBrcfMqUKXbcIRdM6l/9rOVu8PMo1RQyiloKKWC966678lpparZIdUl0gdeWLVtyrRw03pnfVZGQsTg6Rtzfwy/tX7WaQbSokEIBSVTrqagKj6umUqh74MCB4DdUL71G1fXSr0mTJjV4Pure6G+jLwcKvS9kiSaf0HtU+Pk2VvpCZNq0acE9oJBwyKjXRNTrJ25pbEb/96hKGe4gberu7T/mQuMxZp1eK/7z/N73vhesaZzGnfZvR6thAACA2kHICGSELrr9CzMFjLXYOqacokLGuKUxxard0KFDIx97c0tfGDT2xUdW6IsNDTkQnrU2qjTe7Ntvvx3cEo0Jh4xpVhZaMurLNv8xf//73w/W1Bb3haWrV199NVjTOG3n366pcRwBAACQHYSMQIbMmTPHthq65557aMHYDJpEyb+YjVtZmG24XM9Zs8bWCk2ItG7dOjvBhFqZffe73zUPPvigbVGllpuMZ1ocjb0bdcykURoCIQt0bKmnwpAhQzJ/fGmYBfVM8GkMRf/vcuONNxaceEytivW+pPtRd2pNtOTPAn/HHXcEWwIAACDrCBkB1Cx17Xczt8YpXRCrq7Hur9pp+IGo51BsaSxZIMrChQsjj5mk6+qrr46cIRzJ2bx5c26mbH3B5SZxe/rpp/P+NpoAJ4omtHGT2+n2uq8f//jH5r777su7/dq1a4NbAAAAIMsIGQHUNHWX1dif/gVtc+qaa66xMzGr1VYWxoHzabKgpiabKlQKVDVxE1CIJgAbMWKE+cY3vhF5DCVReg3rtYx0hcdx1d/hF7/4Rd6s7IXGYtQETOHZ23X7P//5z7ZVvr9cEzUdOnQouCUAAACyipARAGqUuicWW1mzatUqc9VVV9kwI8nSEAVAvfnVr36VFwaGSzNFF5ooKtyqWq+jlStX2nV/+tOfGswyfcstt5hHHnnEDmkAAACAbCJkBABkVngSiaSqR48ewW8E6otaRisQdN2eVV26dDFjxoxpcib6/v372+3V1X3x4sXB0qP27NljW4rffvvtNoDUdiNHjrThJAAAALKJkBEAkGmaDESzDidZ6voJ1DNN7PLuu+/aSVyK6dqsWdvVchEAAAC1j5ARAAAAAAAAQCyEjAAAAAAAAABiIWQEAAAAAAAAEAshIwAAAAAAAIBYCBkBAAAAAAAAxELICAAAAAAAACAWQkYAAAAAAAAAsRAyAgAAAAAAAIiFkBEAAAAAAABALISMAAAAAAAAAGIhZAQAAAAAAAAQCyEjAAAAAAAAgFgIGQEAAAAAAADEQsgIAAAAAAAAIBZCRgAAAAAAAACxEDICAAAAAAAAiIWQEQAAAAAAAEAshIwAAAAAAAAAYiFkBAAAAAAAABALISMAAAAAAACAWAgZAQAAAAAAAMRCyAgAAAAAAAAgFkJGAAAAAAAAALEQMgIAAAAAAACIhZARAAAAAAAAQCyEjAAAAAAAAABiIWQEAAAAAAAAEAshIwAAAAAAAIBYUg0ZKYqiKIqiKIqiKIqiKIqq3SoWISNFURRFURRFURRFURRFUXlVLLpLAwAAAAAAALAIGQEAAAAAAADEQsgIAAAAAAAAIBZCRgAAAAAAAACxEDICAAAAAAAAiIWQEQAAAAAAAEAshIwAAAAAAAAAYiFkBAAAAAAAABALISMAAAAAAACAWAgZAQAAAAAAAMRCyAgAAAAAAAAgFkJGAAAAAAAAALEQMgIAAAAAAACIhZARAAAAAAAAQCyEjAAAAAAAAABiIWQEAAAAAAAAEAshIwAAAAAAAIBYCBkBAAAAAAAAxELICAAAAAAAACAWQkYAAAAAAAAAsRAyAgAAAAAAAIiFkBEAAAAAAABALISMAAAAAAAAAGIhZAQAAAAAAAAQCyEjAAAAAAAAgFgIGQEAAAAAAADEQsgIAAAAAAAAIBZCRgAAAAAAAACxEDICAAAAAAAAiIWQEQAAoIbs3bvX3HnnnaZPnz7BEgAAACB5hIwAAAAZ9/vf/9489thj5uqrrzbHHnus+au/+ivTs2fPYC0AAACQPEJGAACAjBs/frxtvThp0iRz7733EjICAAAgdYSMAAAANeTRRx8lZAQAAEDqCBkBAABqCCEjAAAAKoGQEQAAoET79+83Tz/9tBk8eLDZuHGjXXb48GGzdOlS069fP1v6v5alhZARAAAAlUDICAAAUIJDhw6Zu+++2zz++OPmW9/6lmnVqpV58cUXzde+9jXTu3dvM2fOHDNw4EBzzDHHmNGjRwe3Sh4hIwAAACqBkBEAAKAEr7/+uunWrZs5cOBALtg7/fTTbdDobNu2zZx55pnmkksuMZ988kmwNFmEjAAAAKgEQkYAAIASKMx77rnnzF/+8hdz44032mAv3GLxnXfeMWeccQYhI2rGyy+/bDp06GCHAUD1+eijj0znzp3N0KFDbWtrAADSRMgIAABQgvXr15udO3faateunQ0TFSr61KpR3aUVQiqM9K1Zs8ZMmzat6HrppZcaDQ8IGZGUGTNmmBYtWpg+ffoQYFWxZcuWmVNOOcX06tXLtrQGACAthIwAAAAxLF++3LRs2dJ07drVHDx4MFh6lCZ+UeA3efLkYMnnCBmRJQSM2TJ9+nRz7LHH8vcCAKSKkBEAACAGdZlWqKfuiT7XwvG0004zGzZsCJYmj5AR5aau0WoZd9lll5k9e/YES1HtJk2aZN8LCBoBAGkhZAQAACiRG49RXaL9CV9k/vz5dnmPHj3Mp59+aoNGBZL6f5IIGVFOruvt2WefbbZs2RIsLZ2672pYgfDwAfXs7bffNoMHDzZPPfWU2bt3r122f/9+GxIqIBwxYoTZunWrXV4MBYu6vd4PHnvsMfY5ACBxhIwAAAAlamw8RtdVesqUKfbn4cOHm2eeecb+P0mEjCgXzY5+/vnn22636n4bl8Yxbd++faoTIVW7d9991w618Pzzz5u2bduaq666ysyZM8fu9yeeeMLMnj3bfPnLX7ZB7xtvvBHcqvnU8vQrX/lK2f6GAAA0hpARAACgRDq/OfHEExuMx6jWit26dbPrtM2qVavMV7/6VRvaJEGBzQcffGDv/84777Qho8IK/azlu3fvDrYEmsdvBTdgwICSWsHpuFOIphZ5HTt2tPelImT8nPvyQftD+0X7R+8VH374YbDF0fEwtVxfIJTCtUZt1aqVWbduXbAUAIDyKzX/I2QEAAB1T62MCl38a90JJ5xgA4MOHTqYlStXBmvKz7VeLFS0akSxxo4da4+dCy64wOzYsSNY2jx+YObqr//6r3P/J2Q8Svvguuuus0Mp6AuBM888M7LFoiaO0n4rNWRUQDxq1Ch7H4yrCQBIEiEjAABAidTaS12mDx8+HCzJpxBh+/btTLqATFFrN7V6UxfbWbNmBUubT616H3/8cfPAAw/YsP399983K1assC17CRk/p/cFXSPpX43pqjFc1QI6PG6rG3pBLRpLtWvXrlxrUsZnBAAkhZARAAAAgKWJWdTVXmHU9ddfX7aAXNcChIyFjRw50u4bTQ7la2zc12IppFSQWer4jgAANIWQEQAAAIA1depUG0S58UTLRfdFyBhNLT81rutxxx1nlixZEiw9yrVwDI/7Wgo/QNa/+hkAgHIqNf8jZAQAAABqiMZe1BiMCqF69erVoNtuHISMhbnxGNViUS0XHXVp7tu3r91nbpZ6/fvaa6/Z/5di4cKFthu8gss43a8BAIhCyAgAAADAznKsQKvcrRhF91fLIePWrVvNzJkzzYIFC8z+/fuDpUe5dSr9P6zQeIyuq7QCyM2bN9sJW6688kqzdu3aYIviqfVi586d7d/h4osvZhIYAEBZlZr/ETICAAAANUITFJ1//vk2fOrRo0dZWzFKLYeM06dPt12dTz75ZPv8NGmOJrpRgHfDDTfYZaeeeqpp0aKFbUU4ZsyY4JZHudnhw+MxagxGjcWo/bV3714bAt91112x/zZqDanfp3ItJAEAKAdCRgAAAKDOuVaMalE3f/78YGn51GrI+NZbb9mWhpqxWZPkqDWinuN5551n2rdvb4Pb1atX23Xjx4+3QWS4W3TPnj0jW48qTFR36ZNOOslceumlNrAsR8tDP1CmNSMAoJxKzf8IGQEAAIAasGvXLtOxY8dEQyddC9RiyDh8+HAb2Cm4EwWGeo6qc88917z77rt2+ejRo3PL27Ztaz744AO7XLQvdu/eHfyUT+My6u+j0v/LRY9bjyWpUBkAUJ8IGQEAAIA65nefVYvGJNRiyKgwVqHs0KFD7c/79u0znTp1yoV3/sQqfvioMRErPbOzxnU85ZRT7ONJons8AKA+ETICAAAUSQGJWiJVe5W79RNqj8IlhUwKmxQ6xZlUpDG1GDLqOWmsRU3cIm4MRT3Hiy66yHz88cd2ucybN8+0bt3azt69cuXKYGnl+BPAJPl3BwDUl1LzP0JGAABQt9xEDdVeUeO8Ab4NGzaY0047zR4vSbaw03FY7pBxzZo1Ztq0aWUt1725OTTO4o4dO+y/4maJ1nPs16+fXVbNNNGMe6/QexoAAHGVmv8RMgIAgLo1a9YsO0usu0D369vf/nZkeFFKqRvr4MGDTZ8+fXJ12WWXmTZt2kT+7qjSxBG0ZkQhbsIXVVJdpSWJkHHQoEG5x16ueuihh4J7L566Tbv70XtEtfP/JkwAAwAoh1LzP0JGAABQtxTaDRgwIBco+KUAUDPOpkGTRaj11He+853c+Grh0sy3mzdvDm6RTWqxNnnyZNs6TEFrNXQ3rQUHDx40Xbt2tcdJ0q1edd8u0ApPfFIL/H2plqFqIVrtFPQq8E3j7w8AqA+l5n+EjAAAoK6p1Y9aFeoCPVxannarIAWf69evN9dee22Dx5NkC7U03H///bnWmy1btjTLly8P1iAOv6t0eAzBctO1QC2HjP54jFkac9JvfUmXaQBAXISMAAAAJVq2bFnBFoSPPfZYxbopK2zs2LFj7rHUQldIF+K0a9fO7Ny5M1iKONQ61B0jt956a6LHa62HjFkbj9FRt253DKglplpkAgBQKkJGICNee+0186UvfSl3IqjZCSdOnJjYAO31TBfnOtHWeGuqf/iHf2BfA0XQa+WRRx6xr6P9+/cHS2vXpEmTcu/Nfun9Y+HChcFW6dNkFBpfTo9F4cf8+fODNdmk2Xn1XLp162ZnREY8ChQVLLrjVZOAJKnWQ8aRI0fm9mUWxmN0/NasCvEV5gMAUCpCRiADpk+fbltu6AJRJ+WvvPKKOf/88+0JYZcuXRiou4xmzJhh/v7v/9688MIL9gJdYckDDzxg93Uluj8CWaEL1WeffdZ0797ddmfVayZLXQbj0HuFxgnUcw7XueeeW9RsteWmIOn555+3gWePHj0yHc65bp1Jh2H1Ql2j1UVa+zSNLui1HDJmcTxGxz8OVArzAQAoFSEjUOXWrVtnzjvvPNslz6dJBdz4VMOHDw+WIg4FiOpSqK6PM2fODJYas23bNjtxgvZ11sc1A5KiC1MFbQqAfvjDH9rXS72EjKL3CfflT7jUWkxBZKUoaBw1apR9b1u7dm2wNFvcBBXHHXecWbJkSbAUcaxatcqcfPLJ9hhNI/RTiOm+gKi1kNE/T8ja+57eH2688cbc+5XCfAAASkXICFQ5N16SLg7feOONYOlRGvNH6xifqjx0waMLH+1TtVp03Tz95T179rTLABQ2e/Zs+3qpp5BRfv/73+daaoVr9OjRwVaVsWvXLjtGY1a/lIoaj1HhiIa3GDx4sBk3blxFg9wsUst9d3z6n3nlMn78ePvFg8pv4ezqb/7mb+xnqtsmyzOGK/hWAK7nlcWQ7oknnsj9XRiXEQAQByEjUOXUKsid+OnC3adZALVcLRHUIgHxqBuhZjA9++yzC7ZkZOZFoGn1GjIq9NJkL+492y99URRukZ62RYsWmWHDhpm9e/cGS7LDTU7hxmNUoPjwww/bmbQnTJhgzjnnHLp5FsmfVbhXr17B0vJRgOju/6STTjJnnXVWXulzVd343Tbhc5wsce95ej4a0iZr3HinKr64BgDEQcgIVDl14R0yZIgdvD/cysCFjAzUnSyNhalJE1q1amW7rwPVZsWKFbZl889//vPcBEVqufbUU0/ZFkL6Vz+npV5DRtH+v+qqq3IX7H6pJWGaf4da4o/HqIBxwIABdkIuffa5L4GyHFKlTUGtAlt3bPIFWjw6JhXib9q0yX7ZkDW6TnOtsPniGgAQByEjkFH+BULnzp2Z+TghasWocRpbtGhhu5YB1Uat4xRq/ehHP7IXif3797cTfVx44YXmJz/5iZkyZYptnavxAnU8p6GeQ0bRRC+a8MUFOH4p9KVbb3F0DOlYUnfUBQsW2EDdvR9v3LjRtG7duuIT7GRNeLIPAtr65g8Lo6JVMACgVISMVUIf7hpXCM2nUE2DiNfrxZpeUwoUjj/+eLN48eJgaTLqcV8PHDjQnH766fZkW+FMWt/q1/txXU71sC/1ZYO6JLqZ53WRqFa3Wua3fB45cmSqQUK9h4wyffr0vK6grrRM69B8bjxGfd61b9/ezJ07N1iDUrl9qmMyjZmlUd327dtnOnXqlHuf0hiNAACUgpCxSqibSj1fjJVCx5TG9KnHY0vhiVou6WJVLZaS7ppTj/ta+1TdGtUyRrMu6iJMM0sfPnw42CIZ9Xxcl1s97Mv33nvPvhdo/CyFBDpOo1osuq6mhIzp0XuIxj90F+1+MfRCcdx4jGpRrrH99G/v3r3Nhx9+GGyBYrn3C+3X0047zWzYsCFYg3qkiV404Yt7j1JrYQAASqFrr1KuvwgZy4yQsXg6puoxjHETC6jbWBoBo9TrvnYUNnbo0MGeeGvfJ7nP631fl1M97Eu1VtSs8zom3SRR4ZlN3cVjVGsl3V6twqZNm1Z0NdY1lZDxKI2pq1l73YW7X1qu9WiaPx6jvujRrMX6ko3zptK516hKLaDVEhr1zZ+oR1+upnF+CQCoPbr2KuX6i5CxzAgZi6djqt7CGJ3wjR492raCefHFF4OlyavHfR2mmTd14q0JBjZv3hwsLT/2dfnU077Ue4MuCtVVOvzeoBZKaqmk8dc0DpuPkDF5arGo92x38e7XqFGjuJBvgo5RBbJ+SO66dmrG7jVr1th9OG7cOLN69Wq7Hk1zX0qoot4bUH/csBoq3rsBAKXStVcp11+EjGVGyFg8HVP1FsZoHC+FXJpJ1lHX6aefftps3bo1WFJ+9bKv1fVOLWZ0sRoex0+vUXfyneSA6PV4XCelnvaluku3a9cucqZ5Fyak2f2NkDFfY+MzqiswCnNjB+r41nEubvxRTWi0fft2u7xLly6JfgFUa/zPNF6nEP+YcK8tAACKpWuvUq6/ajJk1IepLozUQmPTpk2pti6oRMio57dlyxYzc+ZMW80NqRS+LFq0KHI/+ev0b5ITLuiYqkSAUMpxom20bdR+8dfpftU1N4pmkP3nf/7nBuMmaey1Sy+9NNGTwXrZ1wph3Al2OEh03fXUTX3JkiXB0vKr1L6uRZXYlzrGKvG+6sZXU7dodY929CWEZp/XhBmvv/66nShmzJgxdkbeJOn1pdcL4cVR+ptpVmn3/uJXlmZFrsTxrZa5aqHbrVs3e/yKC9Xd8TVp0iQ7WZd/v7Wo1P0fxe8a6+9b1C/N2O6OCbrQAwBKpWuvUq6/aipk1KzOX/rSl+yHqgYU14yyOqG99dZbzZtvvml69OhhT8aSHDspzZBRJ6kvv/yynRxAz/nUU0+1pf8/9NBDtuvRV7/6VRuqhE/23fhSGnRdpdvccccddjuFMl/4whdsywzXNUyhWFInKTqm0gwQSj1OtL81jp+2Pfnkk+3tL7jgAntRqYDwy1/+sl2mfaZ9pxmjX3jhheDWR6nl4j/90z/ZWaS1P/366U9/aq644opEj5162dcuZNS6V155JVh6dAZfXYRpnV43tRjo1qI092Wl31cLjcfoukpffPHF9veopZdCxySPYSFkbEhfanTs2NHul3Bdf/31DY6LalLJ41uz3Gq5xmH0Pfnkk/b+9CWbjrPwZEe1JM7+L8QPGfV/wL1vq5gMCABQKl17lXL9VRMho07ann32WXuSqrDhV7/6VW7m2KVLl9qxfhRW6MNW65N8DmmFjDr5HDJkiH1Ouvj+3e9+Z/eDaurUqbaVlnvO4W8xtY1mynStLtSaS9tr229+85t2Pz744IO25czbb79trrzySrtOF79J0N8jjQAh7nGiYFDbqLucxjzS2EfaVheb6o6iiy9dHGncqREjRtiLLb81kva19rluU6iSvkCol32t+9PtdVHrzyKtVqRaru1130lKa1/Xg7T2ZaXfV3UfCuD1O8LjMbr703uEjun+/fvbcV2ToNeRnpvq+9//vn2c7du3t60mtUwhmx5rPXPvJdo34Up6UqlSVfr41u//6KOPIvfN7t27bWDe3GAti+Ls/0LcZFC6jYqQEeKHjElf9wAAapc+P0r5DMl8yKiTM11o6YO0UHAwfPjw3Idt0mOTpBEy6kRVrQf0fHSRo4sdn1prqYWYe84KZBTGOGoBo/EAn3nmGfuz/qY6CXHbuwskhTju23aVnlsS9PuTDhDiHidun6rlkC6i9PfV39ltr32sVh7azv1tVP6xoP3nlheqpPaxUy/7Wo9hzpw59vWhcETdG3XxpZY2Kl3QaZskpbGv60Ua+7Ia3lfdsf7FL37RvPfee8HSo7Tu61//uh3TTi1577333sQCGf8CNar811qxFFBefvnl9u9Z7rrwwgtTbbHj3ufCFXX8VFqtnTcUoi7cHTp0iDw+4pZaWu7YsSP4TcWJu/8LCX8+EjJC/C8BCBkBAKXS50cpnyGZDxkXLlxogwx9kGrWWJ2ohWn8Ko1jpW2SHq9GJ9RxLsCaY+zYsbkTykIn8L/85S9z24S73U2ZMsW0adMmN6mAP3aL/9j1t3YXEfp2ff78+XZ5uen36AQ+yWMr7nHiLrAmT55sf9aFlH7Wtv4JXPiEv2/fvomHWcWot32tVh7qLv3AAw/Y0v9da8ekpbGv60Ua+7Ja3lfVoqvQ54daMCrk0DZZpbDlBz/4gQ3+y1368kJfQKRFz0UtT93f2S8N71BqIJWEWjtvKER/fx0HUcdH3NJxW2qwH3f/FxL+HCx036gv/uvQP28CAKAY+vwo5TMk0yGjPy6SGww/isKKtE7AdP/+CXe5vfXWW/ZEX89FwYsCmSg6QXXP2Z/xUiGMLor8rqX+ti7YEZ2s33jjjXYSAm1T6sl1U3RMJRkglOM40T7UOFOulYz/LbEfkmn/ajIGjSOocZUUkFUT9nV6kt7Xolm01fpFrUHVqqrY1+irr75qu6Kr9P9i6Hfpd+p333TTTbYbZFKS3pe1+L6KdDQ2DIaCqWr4+3J8V1bc/d8YQkZE0WclISMAIC59fpTyGZLpkFGzELoTq8aCPbWm0jYKKhRYFEsXEZotsTmlk+vzzjvPPrao9eHSIN/NpRN9jYnknrNO+rUsTF1s1NVG26hrnWt54KgVjGsJowsGN55POQeH1mOYO3du5HMOl06K1X1I/0atD9dLL71U1IVLOY4T7Se1SnHj+7nJGVRJjVXZXOzr9FTTvhZ/Fu1iWw2pi7rfrVH/L2YoCV0Eu9uqBg0aFKxpnmrZl1l6X0V18ltv+1VouIg0cXxXVrn2fyGEjIiiazVCRgBAXKXmf5kNGTVWm8Zsa+rEyp80Imqcq+bQTIju95S7brvttryJKRoTDgUKfdOtk1OdpGqbxoIeKWbbYmiCgNatW+ceaznrb//2b5vdai2J40Qt6dSiTttWw8kb+zo91bKvxb/Qd6WJbppLwYACAnfbYsMCN1Osq+7duzf7vUyqZV9m6X0V1UmhkcYkdMeQXxqHzx8OIm0c35WVxP73aTtt7+6/nCGju08qvSoXnSsRMgIA4tLnRymfIZkNGf0L5MZaKPrbhcd+S4JO8JI66dZso27mQZ2M6qQ0ir+dut80xt9WraIqQcdUUl0hkzhOdu7cadq1a2e31b/6OSvY1+lJcl87aiXlWlC5WV+bSy391J1Tt1UV27XT7yaqx1Do4rkcktyXtfq+inTpM/+KK66wf3NXapmW5hiRUTi+KyuJ/e9LMmREdumzkpARABCXPj9K+QzJbMg4b9683EmVxrgp1GqlsbHfkpBkyOi3HOrUqZPZt29fsCZfMeP6FLNtUnRMJRUgJHGcKDxTiKZtC3V9qlbs6/Qkua99W7dutd2D1d2uWGp5qMenKqYVoqPfqd+tx5CkJPdlrb6vIn1btmyxY5Tq715s6J8Uju/KSmL/+wgZEUWflYSMAIC49PlRymdIZkPG2bNn506qGgv13Jhlfssqd2FcykV5U5IMGXXf7jn37NkzWJrP70Lpf2uuFmCaWddvqVQt4yrpmEoqQEjiOKmmMQKLxb5OT5L7ut4kuS9r9X21Wqn7qAviyl16T1m8eHHwm9KlL0CmTp1qW/Vq/NBly5YFayqr3o7vVatW2cnA3HMuZ2nfvPnmm8Fvap5y7/+wcMhIy1KIPisJGQEAcenzo5TPkJpoyVjoxK3Q2G/6ltifvbackgwZ/W/E9Xui6ORUJ6naxn8c2j7c3VQtzdTiLLxt2nRMJRUglPs40YWkJvfRtlk8cWNfpyfJfV1vktyXtfq+Wq30ul66dGnkhD1xSxOwaGzYSnBDFyhg1POrFvV2fCuQ0xdWUcdH3NKXYsW2+C73/g/TtrqN+x2FPntRX/wvfQkZAQCl0udHKZ8hNTEmY6GTKn+8Mn1LrG+LRd/0aoKKJC5GdFKY1Im3P2ZP1MmqLt78wefdN9ruW/K+ffvabZxqGVdJx1RSAUK5jxOd7OukX9s2dfJfjdjX6UlyX9ebJPdlrb6vIj1qtahwUe9teo+rJhzflVXu/R9Fn7fu9oSMEEJGAEA56POjlM+QzIaM/ky2UYGhWhLopD984uVm+nvmmWfsz+WWZMjoz1IYPvHU/11XLfec3Qnt2rVr7Syu8+fPtz87I0eOzG1byXGVdEwlFSCU+zhZvny5admypd02a2MECvs6PUnu63qT5L6s1fdVpMOfAElhUbW9T3F8V1a5938UP2RU6/9qOwaRPj9kbNu2rfnggw+CNQAANJ+uvUq5/spsyCh+6wGdqOnESsGGTvRPOOEEc9ttt5kLL7zQfshec8019pvhhx56yFxwwQVmx44dwb2UV5Iho0R1ydq7d6+5++67TYsWLUz//v1NmzZt7HMeMmSI+eMf/2huueUWc9VVV+WFPprRVzP7ajt/DKBK0DGVZBhTzuPEn7RE/88a9nV6kt7X9STpfVmL76tInmaO1gzS+nsXOzt7mji+K6tc+78Qf9KYJM8/kR1+N31CRgBAqXTtVcr1V6ZDRnn11VfNOeeck/swVZ1++um5gGPFihV2rDe3Tid56r6SlKRDRj0nPbcvfOELec9Z35RrX8iMGTPsiatbp0H2/bHuRI9Pj1PrXdhTKTqmkg5jynWc6O+r9WphsHHjxmBpdrCv05PGvq4XSe/LWnxfRbIUMF533XX2b13NAaNwfFdWufZ/Ie6zUkXICPGPicZmNQcAoDG69irl+ivzIaNoIO63337bzJw50wYY4ZN9/azlCxYsSGRGaV/SIaOj57Ru3To7GLlORMODkevkX7MSLlq0qODFz9atWxObZbsYOqbSCGPKcZy4WZC177KIfZ2etPZ1PUhrX+q4rJX3VSRHf3sFi7qAV0tGBY5ZwPFdWeXY/1EUULpAqdparek5btq0qcFzRbJ69eqVOyb0HsXrFQBQCl17lXL9VRMhYzVJK2SsJTqmCGPSwb5OD/u6fNiXqBZqleYm6tBYjBqTEagkf3KZaurGrpnIr776arrrVoA/Tqcb/xoAgGLp2quU6y9CxjL72c9+ZgYNGmTHLkLz6Ftudb3SCSmSxb5OD/u6fNiXqBZufD0N+aDW2EClrVq1ypx88sk2UKrkTML6cl3v0Zp0pEuXLrmQi5AxXf6wBio1fgAAoBSEjAAAAAlx4+ZpHFlNcgVUAwV4CvJcqKSQL21+yzmVgnj3f0LGdO3cudO0a9cut//1vgUAQCkIGQEAABLgz5yv1oyVpnH7hg0bZmcpRn0Lt1zTzMJpGz9+vBk8eLAdb1LjMatFows+CRnTpe7y6javfd+yZUuzfPnyYA0AAMUhZAQAACgzjbuo8Rd10a7xGDUuYyXt2rXLdOzY0fTt27fijwXVwZ/oo1+/fsHSyvFbVxIypmvJkiXmuOOOs/v+zDPPZJgRAEDJCBkBAADKSBfoF110kb1gv+eee4qa9TcJbuIZtajUhB+APPfcc7mQsWvXrnam6koiZKycyZMn546FTp06mX379gVrAAAoDiEjAABAmezZs8dcdtll9mK9T58+FQ8YxU08c/HFF9vHB4jfek3j8WlcvkoiZKycoUOH5kJGtXAFAKBUhIwAAABloEBRwaIu1BU0VjrQO3z4sB33zk2oMXz48GANcLTFrbrG6tjQTNOacbqSaj1k3Lp1q5k5c6ZZsGCB2b9/f7D0KLdOpf+nSS1Y1ZJV+12lVo0AAJSKkBEAACAm1yVZF+kai1FjMlaSAqRrr702FxyceOKJnIshTzhcqvSMwrUcMqo1sVqNKszV82vVqpVZsWKF/SLihhtusMtOPfVUOxO9vhQYM2ZMcMvkbd++3Zx99tn2MfA+AQCIq9T8j5ARAADgiHDA+NZbbwVr0qdWUHfddVeu9aKrzp07mwMHDgRbAUc9+uijuWOk0pO/1GrIqPcDtRjVe4RaO3fr1s0+x/POO8+0b9/enH/++Wb16tV2nVoeK4hMs/u6321eY8l+/PHHwRoAAIpHyAgAABCDG/PwlFNOMcuWLQuWpuOTTz6xv1Njqim0cIFRuDTJBxDmB0yXXHKJPZ4qpVZDRg1ToCBRLQalZ8+eudel3+p59OjRueVpPn9/AqBqmGUcAJBthIwAAAAlUsCncFEX6P/4j/9ox2RMsrp37267NrZp0yYXDDRVakW1efPm4BEDn1NrObWa03Fy2mmnmQ0bNgRr0leLIaO6Q2vCJX0JIJq1WbM36zkec8wxeV3U/fAxrZbHn376aa5lpWrWrFnBGgAASkPICAAAUAK1QFJLJHeBXq1166232i7dQBS1XnPHSiUn/ajFkFHXPxpr8cUXX7Q/v/POO+aMM86wzzHcNXnevHmmdevW5oILLjArV64MlibrvffeM1/84hft49G/+hkAgDgIGQEAAIr04Ycfmq985Su5cKZaS62l5s+fHzxqoCEFYDpOdLz06NHDtm6rhCRCRn0RMG3atLLWmjVrgntvmsZZ3LFjh/1X/H1dDV2T9d7gHg9fRgAAyoGQEQAAoEhTp0613ZbPOuusqq7LL7/c7Nq1K3jUQENqTadWdQqaKtmaLYmQUROp6P7KWTfffHPJQay6Tbv7qXTXZAWKffv2tY+FLyMAAOVCyAgAAADUMU1O4sKvKVOmBEvT5YeMJ554Ys1dOxw8eNB07drVPr9Kj38pmohGE9Lo8WjcSI0fCQBAXISMAAAAQB1bu3ZtbgKjSnWZrvWQ0R+PsdIzeYtaUuqxqJ555plgKQAA8RAyAgAAAHVMoWKvXr1s4KSwUaFj2mo9ZKym8Rj191aYrMfC7PMAgHIiZAQAAADq3Ouvv26OP/54Gzyp+3Taaj1kHDlypH1uqkqPx+i3XB0wYAATvgAAyoaQEQAAAKhzfus2jdWnMfvSVMshYzWNx6hAcdiwYfaxtGrVyqxbty5YAwBAfISMAAAAAOz5ugI+BVBpj9O3bds223W3FkNG/7lVejxGdY12j0VhI60YAQDlVGr+R8gIAAAA1BAFTuo+qwAq6daM8+bNM3369LHVs2dPc/rpp9vf60rdebt3757bRttn1ZIlS8xxxx1nn9fQoUODpenzWzH+3d/9ndm6dWuwBgCA8iBkBAAAAGBt2bLFnH322TaIevTRR4Ol5af7doFiixYtzFlnndWgtNxtk+RjSdrs2bPtczj22GPNK6+8EixN31tvvWXatGljH8vYsWODpQAAlA8hIwAAAICcSZMm2SBKgZSCKcRz6NAhs2jRIrNp06aKdU/WmJt33HGH/bteccUVFe2yDQCoXYSMAAAAMa1Zs8ZMnjzZ9OvXz3btXLlyZbAGyB6FYtdff70NpG699Vb7M7Jt8eLFdvZwdUN/4403gqUAAJQXISMAAEBM999/f64bYsuWLc3y5cuDNenYv3+/ue+++2yAoMfQunVr8/jjj5sDBw4EWwDFeffdd825555ru/hOnz49WIos2rVrl+nYsaN9b6CbNAAgSYSMAAAAZfDOO++YM844w7Rr187s3LkzWJq8PXv2mMsuu8xcdNFFdjw9URdXBURdunSx64FSKFxUyKhjSaEjssef7EWtrGmVCgBIEiEjAABAGWj2W13Id+vWzY5/lhZNiKGZa3/7298GS47Sz1qe5QkzUFkKqB577DF7XNNtOptcUKwvIvjCAQCQNEJGAACAMhg6dKgNY5577rlgSfLUYlItJzUb8Pbt24OlR33wwQembdu2toXjxx9/HCwFiqNgUS3gdGwrcKzUxCUonptNmpaoAIC0EDICAADEpJlaL7nkEttycMmSJcHS5Ol36Xfqd4dni923b5/p1KlTRcaIRG3R2J69evVifMYMccMotGrVyqxYsSJYCgBAsggZAQAAYooaj1EtvtavX28GDx5sxo0bl0hXU81orRZmUSGjCz61fsaMGcFSoDQKra677jo7udCyZcuCpahG+ltpPFb+VgCAtBEyAgAAxDRr1iwb5rnxGBUoPvzww+baa681EyZMMOecc44ds7HcNN5ic0JGxmVEOWgW85tuusmGV2+88UawFNXEdW8/66yzzMqVK4OlAACkg5ARAAAgJn88Rl3kDxgwwEycONG2cDzzzDPtutmzZ9ttDx48aG655RYbApRSHTp0MJs2bbL3RciItB0+fNjs2LHDHseoPmpBvWvXrgbvBwAApIGQEQAAIAYX5mlsxAULFph+/frluidv3LjRtG7dusHEC7qNJmYppRQguMk3CBkBAABQLQgZAQAAYnDjMR5//PGmffv2Zu7cucGa5BEyAgAAoFoQMgIAAMTgxmNs0aKFOemkk+y/vXv3Nh9++GGwRXKeeOKJZoWM2g4AAABIEiEjAABADP54jBqvbvz48ebYY4+NDP4cLY/qCt2c8rtLazKZ5oSMSUw6AwAAAPgIGQEAAEqk2XYvu+wy07JlS7N8+XK7bN++faZTp052Bt41a9bYQHDcuHFm9erVdn05J37ZsGGDOe2008zZZ59ttm/fbpc5CiTbtm1r12s7AAAAIEmEjAAAACVy4zG2a9fO7Ny50y5z4Z4L/rS8S5cuZvPmzXZ9OR04cMB07tw5Mkh0AeQ111zDTMAAAABIHCEjAABAiV588UVzzDHHmG7duplPP/3ULlOoqNDRdWGeNGmSGThwYK6Lc7ktXLjQds8eNWpU7nfo32HDhtnJaBYvXmyXAQAAAEkiZAQAACiRm3hF4zD6nnzySTsBzKWXXmrDxm3btgVryk+B4rPPPmu7bN98881m8uTJpkePHuaEE04wEydOTCzcBAAAAHyEjAAAACU6dOiQ+eijjyKDvN27d9vu0tomDZoQxrWanD17th0vEgAAAEgLISMAAAAAAACAWAgZAQAAAAAAAMRCyAgAAAAAAAAgFkJGAAAAAAAAALEQMgIAAAAAAACIhZARAAAAAAAAQCyEjAAAAAAAAABiIWQEAAAAAAAAEAshIwAAAAAAAIBYCBkBAAAAAAAAxELICAAAAAAAACAWQkYAAAAAAAAAsRAyAgAAAAAAAIiFkBEAAAAAAABALISMAAAAAAAAAGIhZAQAAAAAAAAQCyEjAAAAAAAAgFgIGQEAAAAAAADEQsgIAAAAAAAAIBZCRgAAAAAAAACxEDICAAAAAAAAiIWQEQAAAAAAAEAshIwAAAAAAAAAYiFkBAAAAAAAABALISMAAAAAAACAWAgZAQAAAAAAAMRCyAgAAAAAAAAgFkJGAAAAAAAAALEQMgIAAAAAAACIJdWQkaIoiqIoiqIoiqIoiqKo2q1iETJSFEVRFEVRFEVRFEVRFJVXxSoqZAQAAAAAAACAMEJGAAAAAAAAADEY8/96b+HxILXz+AAAAABJRU5ErkJggg==;" vertex="1" parent="1">
                    <mxGeometry x="50" y="-10" width="1305" height="263" as="geometry"/>
                </mxCell>
                <mxCell id="3" value="" style="shape=image;verticalLabelPosition=bottom;labelBackgroundColor=default;verticalAlign=top;aspect=fixed;imageAspect=0;image=data:image/png,iVBORw0KGgoAAAANSUhEUgAABRUAAACHCAYAAACI7r6cAAAAAXNSR0IArs4c6QAAAARnQU1BAACxjwv8YQUAAAAJcEhZcwAAITcAACE3ATNYn3oAAAASdEVYdFNvZnR3YXJlAEdyZWVuc2hvdF5VCAUAAEFbSURBVHhe7b0JtCRVna+L2vq6tfWpXc0Vvbb3NbocWL7VfRue9rK5ba9WEFEUmRREZBIUAQsBERGQxoEZAQVFZgRkFJkRaEAQKJUZFRAomaeCKkoGEY1XX1T+s3bG2ZknIs9QkXW+b63fqlOxh4jYERm545f/vfdyhYiIiIiIiIiIiEgDNBVFRERERERERESkEZqKIiIiIiIiIiIi0ohapuIvf/lLpZRSSimllFJKKaXUMq66aCoqpZRSSimllFJKKaVK1aWRqSgiIiIiIiIiIiLLHpqKIiIiIiIiIiIi0ghNRREREREREREREWmEpqKIiIiIiIiIiIg0QlNRREREREREREREGqGpKCIiIiIiIiIiIo3QVBQREREREREREZFGaCqKiIiIiIiIiIhIIzQVRUREREREREREpBGaiiIiIiIiIiIiItIITUURERERERERERFphKaiiIiIiIiIiIiINEJTUURERERERERERBqhqSgiIiIiIiIiIiKN0FQUERERERERERGRRmgqioiIiIiIiIiISCM0FUVERERERERERKQRmooiIiIiIiIiIiLSCE1FERERERERERERaYSmooiIiIiIiIiIiDRCU1FEREREREREREQaoakoIiIiIiIiIiIijdBUFBERERERERERkUZoKoqIiIiIiIiIiEgjNBVFRERERERERESkEZqKIiIiIiIiIiIi0ghNRREREREREREREWmEpqKIiIiIiIiIiIg0QlNRRERGkj/84Q/FJZdcUurpp5/ubG3OPffcU/z4xz8ubr311uIvf/lLZ6uINGXhwoXFOeecUxx//PHFBRdcUNx7772dFBERERFZFtFUFBGRkWTTTTct3ve+95XafPPNO1ubgZEYdaCzzjqrkyIidcGMP/zww4vVV1+95/OE9tprr+LPf/5zJ6eIiIiILEtoKorIMkVErx133HG1RFQNxtJEIt3aCOd07rnnjhGm2T777FMcffTR2XRE2bZDBFTVvBgmKuqII47oqWOHHXbopEgK0ZynnXZa9jM0FbrooouWuc/kssy+++7b8zmq6uqrr+7kFBEREZFliSkxFX/xi1+02lTkRWX27NnF+9///lInnHBC7SFvv/nNb4qPfvSjZblvfOMbna0yHrQVbfbJT36yeOyxxzpbRSafrbbaqvvZbqLVVlutOPLII4s//elPnZpGl/POOy97jk2E2dpm7rjjjjHHfPvtt3dS6/Ptb3+7p47PfvaznRQJ+N5L22i69LnPfa5zBNJmLrvssp7rxrN07bXX7tl24403dnLLsDg1g4iIiLQRTcVFWmuttYobbrihkzoYTcXh0FQcnvvuu6949tlnO/+TQTz66KPdz/Ww+sxnPlM88MADnRpHky984QvZc2uibbfdtlNbO9FUnD6OPfbYnjaaTo3y9wURv3Pnzu38b9mE/tQGG2zQc82uu+664qabbiq/7z/4wQ8W++23Xye3TARNRREREWkjk2IqVjs61UpJb1NniE4wQ9zSTvA222xTzJ8/v5OjP5qKwxGm4sYbb6ypWJPnn3+++PrXv16220c+8pHiyiuv7KRIP3JG0zDaYostRjpikTnMcufVRHvuuWentnYyVaai0XFjOeigg3raaDr129/+tnMUo0X6GWz7Z2kiMI9ier34wVYmTp1+c5v61SIiIjJzmRRTsUouUjE6SKmWFhGpyBCdVEcdddS4x8ULDsN6yK+pWB/aijbTVKwHkYkY3+n9yQT4l156aSeH5Ljzzjt72mwi4nkwqhDduv3222fPq46222671q/amrvWGI1NOeSQQ3rqMFJxLAcffHBPG02nhjGKlzZ8/qrnccstt3RSlx2ee+65MhIxPU9//BqOav841xfNbRMRERFZ2kyaqZh2dqjwV7/6Vfl3rnMU25aWWMgBwwaT5gMf+EDZKeZvIhAZBp0rEyJS8WMf+1iZH6Msl0eNFW1Fm4WpmMujFov7k8hZ2qsq7tcLLrggW079pTSaqm2GKZHLG+J+vPzyy4tPf/rTPeU+/OEPl9GKuTKjIlZcTVW9r3bbbbcxeVCurrYJAzE9FzTetc6JSMW0DiIVc/lmsohUTNuI+yiXb6LKXVN+yMvlbbN4RlfPg4VucnlHWVdccUXPOa677roj/8xc2kqpbuv3t4iIiMjSZNJMRYhOTpiK0SFKBbnt0ylMmy9+8YulQfOpT32qOOyww4o11lij/D/zqc2bNy9bDmEqrrPOOmXeb33rW9k8aqxoq2hvTcX+euqpp4rPf/7zZVsN0plnnpktP9OFqVhtq7pG09133z2mLCZHLu8oiuH0H/rQh3rO7/jjj8/mHQVxbdJzQcOYikQqpnVMlWE2yiJSMW0jnlG5fBNV7pqOoqnIHILpOTC3YC7fqCu+10P2iSaufn3k2J7+KyIiItIGJmQq5jo4/D3IVMxFwVSjZKZamIo77rhjGaFIdBLD/HbZZZfy/wiT8YUXXsiW/fWvf13+Gk8+OtC5PIgh1ueff345lI758MjPC/3WW29d/OhHPyoWLlyYLYeol/wcIwbnMcccUxqZbMOUY9L8Z555pjjppJPKbZwDC1RQ5/e+971io402Krevueaa5dxwF154YfHHP/6xrJvzYvL4r3zlK93jIvJy3333LSeUrx5LKoZ0Uf9mm23WLYvWW2+9cmGI//7v/+7up6o4pzjWXJ6ZLgxF7pdo1/F06qmnZuuZycJUqrYTpkQub07x2QmdffbZ2XyjqFzbXH311dm8o6CJXuvQoYce2lMHC9Tk8s1kEc2ZthHD4yPt/vvvL+d+5Yc6vvPSck2Vu6b8kJfLuzREv4bV5fkev/nmm7N50KabbtpzDny/pulMrbD++usX++yzTzmXc5rWdv3sZz8rp+H46U9/Wo7uSM+TzxJpjPjIlVVjlesPV7eh6F/H35BuFxEREVlaTMhUTInODqLjXTUVqx2pQcL4mkphvu28887l8EYMMkwuXkY33HDDchsm25w5c7JlMRVZ6ZB8vBDk8tCgRCaQp5+og845Q4Wq5amXPAzR5mWtWvab3/xmOZfRySefXP6fc6CuQfs88MADSzMVU5DVrnN5OP/bbrttzPGwryOPPLI0EnPlUmEuPvzww2PqiHOK9q6mqxeK73znO2Pac5C4jhjiubpmqoh0qrYTn+1c3pwwDNKyGPq5fKMohmSm54ZG+bOIAVU9nybXOsSPSGkdzEWZyzeTRTRn2kY85yONH7/SNH60Sss2Ue6aYirm8k63mCsaEy2Oi6k8+HGvmo9ncnr86Nxzz+2mM9VCmhaLxKV1tFWnn356z7EP0o033pitY6Yr1+ftp7QPnZOIiIhIGxjaVIwOTdrBiU4QFWIqVjtIKDpVaQcr/p4uYSruuuuu5YIrDHd+5JFHyu0/+clPSkOR7USrMEy3WpaXVqKZyLP//vuPSWeSciL3SCe6kDxM0M4++Jf/s5108pG/Wgd5SA8RAXLTTTcVDz74YHHaaaeVERLkI+Ix6uGYqJeIkrvuuqvcHyYCLz6R58tf/nJ5frwQMhcSeTBh/uu//qt73rwgLliwoHssmJ6nnHJK91hor3POOac8Fsqzrx/+8Ifd/SCMy6pZGueUtrfqFfPbRRvWFVEhubpmqhj+XG0jjIpc3qowz4lCTssSfZvLO4pildb03IgazuUbFfHsSs8H1b3Wqb773e/21MGPObl8M1kYr2kb8Z0UafF9FiIyPi1bFUZcP6Nwsq7pZIsfGeN7PRXzJFbzXnzxxWPy/f73v++mH3HEEWPSaU8i1dN62ijM5eqx9xPtkKtD9SrXH+bffkr72qHoi4uIiIgsDYYyFXOdGRSdnohUjI4SwmRqizAVd9999zJakCgBTC62M2SZyEC2I17CMRrSspiKvIyTzjxTaRomJC+kpGHyEZHAPGZpHkTbbL755mU+hiczl1uaTr1xDF/60pfKIdBpegiDMfKxv4h8TMU2IhAj3x577FGahmkeznuvvfYq0xm2xYtdpDG0jSG5pLFiNpFNadkQZTiXyFc95jintL1VrxjOTBvVFVGfrBKdq2umClOx2k6YErm8VTGdQLUsZkAu7yiKHxXSc2PxpFy+URHPnPR8UN1rnYofQdI6iGLP5ZvJwghL24jvpUjjB6M0jWky0rKp+O796le/Wn5fEclWTc9dU75zq/mmU/ygl36HhvgRKJcfAzbNx/dnms4zJU0P0aa0T5q3beKHSqZgyR1/KvoZ119/fbYOVV9pHxpFHzs1FdM+ePxfREREZDqZlEjFtKNDxyc1FdMOEgZbVczBl9s2lcJU+9rXvlYOF2aoG8N1I+13v/td+RJAGuYhc46lZXnBIdqOdOYPStOYT4rtiOg9DMk0PRV5ie4jL8OY0zTqjXrIl6alOuOMM7r5MO2IAKnm4dyIuiQPph9D06p5UFrXz3/+8+52hkMTvcg5X3bZZT1lUrFvJqenfLVNUZxTLk0t1uOPP15GxjHEDMN4PGGg5eqZyaJN4j4OEZVMNG4/kc4cadVyGO25fYyieBZtsskmPedHpHMu76gIAyo9H4SpmMs7SEztkNbB/ZDLN5P1/e9/v6eNmJM3TeeZdfTRR/f9fkFE4mHERR3cj3Q+0jyTdU0nS5wPP7RVj4mFah544IFsGUYCpHkxGat5iOZM84QwXJmmpJq/TeKHLCI0+QE1Pfazzjqr3I5y5dRi5fq71W0o7TtHX7qfuRh98UBzUURERKaToSMV41+UGop0fJikm1+po3OUdqh4uV3aYv4i5iXEZCM6gMi5NP2iiy4qttxyyzKdl6eHHnqom4apiElHGtEbsZ1oP4Yes5108kVaTkRz7LTTTmV+oiM5pkijXrZjbjLUOS2X6sc//nGZD3HMuTxPPPFEaY6Qh3/5fy4fRmLUde2112bzjKc47lybDkpTarKEqRj38UTE55+6cvsYRTFNQfUcmSMul3dUlLvWmFK5vIPEwldpHfzglMs3k4VhmLYR3yW5fP3E9xsGfloH4scqhhZHPq5fNQ+mYlrXdInvKb6Dq8fD9zaGYq4M8ylW87OgSS4vP9JV8yLm1s3lb5OIqKweNxGYubyqudI+c2oypuZiaiqmfXIRERGR6WZoUzE1E8NQjA4PhiLGYtVI5BduRFRbKP1/Ln0qhLHGkC2iDYgMwDRM0+kwY4KRjnjpZBtpmIVE7rH9Bz/4QbfMk08+WUbqsZ0XLoYJR1pOg46BetnOywsvWWm5VMxtSD7Ei1kuT7of/uX/uXyUH6+uVJioRBwyNIzjYHVnzFTK59o0zimXptRkiSGVcR9PVESsEamU28+oiTlUq+c36p9Dosqr54QBlcs7SCeccEJPHTzLcvlmso4//vjabVT9jmEqDPKn5VPxvRHfORjF1fRhrulkiBEE1WPBcB70uWHKk2qZuXPnZvMi5lSu5h+vTBvEj53p8TInZC6fGqtqP7fa5430qsFYNRdTYxENMher/xcRERGZTBqbitFxQdGZCTMxOj0Yirzch5EYnSWMqBBDfFD693SJlxyG4zJ3FlGCvCRU8/CrO5EV5MFcuO6668rtvOBgjLGdF63ITx3UxXbqZh+R1k+UJz/18TJV3d7v2EIMjSYf4iLm8qTnOui4KD+oLkxSIi4YZs18lJE3p9xx1z0npSYiTPjq/TgRRaRybl+jJObrTM8LcySXb5TEfK/pOaF4TjcRc+emdTDHYi7fTBaLdaVtdNBBB2XzYQ7y/cA8wfyfKR0OOOCAnrI5YeCRn+/Bahrfuek+pktE7FePBXGOufzoxBNP7Mm79957Z/MhpmGp3nuI+QiJ7MyVaYsYvp0eM+eRy6fGV7U/HEpNxkHmYtVUREH6t4iIiMhUMZSpGJ2YMBQRnZyISsRQRKmRGJ0mIv4Q8yulooNd3TZV4kWHebT23HPP4sADDyxXMs7lu+aaa8qXb/JhpjFkGdOCodNs40Ur8lIHdbGdutlHWldOlCc/EY4Mm6puH3RsCJOPfIg5LHN50nMddFyUz9XFdWFoNIs6RHoqthPVyVCu4447rtyWO+6656TURET0Wnp/ToaOOuqo7L5GSRhl6Tlh8ufyjZKIDk/PCZ177rnZvIMUz/MQBmwu30wWc+6mbcSK2dU8fOcTpU86kYlE9TOfYFqun6ifOnKfX4zG6r6mS0SxVo+HPgGdplz+6AOEmLc0l497N74vU1E3Iz1yZdqkaruwgEsun+qvXJ83+sdVkzE1F8NgpM8d/e+0Tx5GooaiiIiITBdDmYphLNKZ4dfSiFKMDg9DYnnBiI5RdJjoRCF+hU9FBzv+nQ4RdcdLNWYev7AT8ZLLR1QfL5jkQ2effXb5ooTByP/PPPPMbl7mX+Ilge2YdxhnaV1VDToG6s1trwojj3yI6NBcnnQ//Mv/c/kon6uLhVqISmE7w6d5mSCCg+FZ1boGHXfdc5rJYt47ViCmneNa9BNRp1yHXD0zWZgS1bbClMjlrYrP8C233NL9vKTi2uTKjIqIFkvP55JLLsnmGzXxrE3PCxOLH05yeXPiB5S0PLrqqquyeWeyfvKTn/S00THHHNOTznDYOs+tfqJ+6uGzWk2r+/mdCtEH4Aex6jEh+jlpXr4Tq3n4YTLNE8JsrOal/eiM5fK3TYccckjPsdPfS9OZGoVFx5iLM/Lw4yNRp2k+2ozvPPpUy8ozqa7Svm+q6CdHvzk1GFNjMaIV04jF6J9rKIqIiMh0MpSpGL+Ixq+kaZQinZ6oVCmllFJKKTVxpcOhc9GKqbEYgvRvERERkckk+il16ZqKdGLSKEU6OHR2+DU17QAppZRSSimlJqaIWAxTMRetKCIiIjKdRD+lLj2mIkqjFJn3hWEaTSsVEREREZGxRL+aPjZ97X7RihGRqLkoIiIi00VT/29MpGI1SlFTUURERERkcoh+dTq/YhqtmDMVNRZFRERkOmjq/40xFdMoRTo6TCzdtFIRERERERlL9KvpY9PXTqMVxzMV418RERGRqaCp/7ccnRZEJ6ZqKvILqqaiiIiIiMjkEP3qWBG6aiqi6J9XDUVNRREREZlKmvp/PaZibujzggULGlcqIiIiIiJjiX41fex+Q6D7mYoiIiIiU0lT/680FdP5FPmlNEzFhQsXaiqKiIiIiEwS0a+mj01fO0xF+uDVeRVRoKkoIiIiU01T/29MpGIMfQ5Tcf78+Y0rFRERERGRsUS/mj52mIoxBLpfpGJIREREZCpp6v9lIxXT+RQ1FUVEREREJofoV9PHrs6rWI1U1FQUERGR6aSp/6epKCIiIiIyTUS/uqmpKCIiIjLVNPX/eoY/x8rPMaeipqKIiIiIyOQR/eowFdM5FWMF6OifayqKiIjIdNLU/xs3UvHJJ59sXKmIiIiIiIwl+tX0sceLVEyNRREREZGppqn/N9BUZFU6IxVFlj58FlPmzJlTzJ49u1h55ZWLWbNmFa9+9auVUkq1SDybeUbzrOaZnVJ9psvMIvrV9LG5FzQVRUREpC009f+ypiJDMIxUFGknvKDmXmCVUkq1Vzy7RSD61WmkYgx/1lQUERGRpUlT/09TUWSEWGeddbIvq0oppdovnuEi0a/WVBQREZG20dT/W45OS5iKsVCLcyqKtA8jFJVSavRlxKJEvzo1FWP4cyzUEv1zTUURERGZTpr6f5qKIiMA83FVX0zf+973Fuedd14Z3SAiIu2CZzPPaJ7V1ed3dY5FmVlEv1pTUURERNpGU/9PU1FkBKhGKfKSqpkoItJ+eFZXjUWjFWc20a/WVBQREZG20dT/01QUGQFYQTR9ISX6RURERgOe2ekznGe6zFyiX62pKCIiIm2jqf+nqSgyAsyaNavnhdQoRRGR0YFndvoM55kuM5foV2sqioiISNto6v9pKoqMAOnLKBIRkdHC57gE0a/WVBQREZG20dT/01QUGQF8GRURGW18jksQ/WpNRREREWkbTf0/TUWREcCXURGR0cbnuATRr9ZUFBERkbbR1P/TVBQZAXwZFREZbXyOSxD9ak1FERERaRtN/T9NRZERwJdREZHRxue4BNGv1lQUERGRttHU/9NUFBkBfBkVERltfI5LEP1qTUURERFpG039P01FkRHAl1ERkdHG57gE0a/WVBQREZG20dT/01QUGQF8GRURGW18jksQ/WpNRREREWkbTf0/TUWREcCXURGR0cbnuATRr9ZUFBERkbbR1P9rtan49a9/vXjf+943lH72s591aplZ0Pm8+OKLi4022qh4//vfX7bFRz/60WLOnDmdHDObuKe+8IUvFE8//XRna/sZ5mX0Jz/5Seev9sHL0fbbb1+86EUvKs4444zi7LPPLpZbbrni05/+9IRfnB588MHiH/7hH8r6vvWtb3W2LoHn3UknnVS86U1vKvOgV7ziFcVPf/rTTo72wzl8//vfL17/+teXx8/5ct6DoF132223Mn+b741+PPzww8Xb3va28vj32GOPztbJhfuF+l/84hcXa621VnHPPfd0UgZz/fXXF+9+97vLsnXb98orryxe9rKXFZ/61Kc6W5Yedc478uQ+U8HChQuLf//3fy/z8S//bwrtMZHyU0E8r2gfnlXDMsxzfGky/5kXisOveLRY5Ru/KV6x7fXFcp/5ZalXf+GGctt+Fz1cPLbwT53c0oToV2sqioiISNto6v9pKjbg7rvvLg477LBWm1Enn3xy10wMfeQjHyl+85vfdHLMbDQV2wEv5rygr7feesXzzz9f3HXXXcXrXve60ui7//77O7mGYzxTcf/99y/TUr385S9fKs+4YameQx1T8dprry3Pk/yjaCqecMIJ3fN985vfXNx7772dlMkjjLMQJuZ9993XSc2DochnMi03XvvOnz+/WHXVVcu8bTIVQ7nz5jv1r/7qrwaafcuqqQh33nlnscIKK9S6J/oxzHN8aYB3deK184rXzr6xayT2E2bj/hc/XLzwZw2vJkS/WlNRRERE2kZT/28kTMWPfexjpQlx2WWX1dajjz7aqWVyOPbYY4vVVlut1WYU12qzzTYr22zDDTcsLr/88uKxxx4rHnnkkfL6iqZiG+B+XGmllXqMvGeffbb44Ac/WEYuTjRicJCpyOfhHe94R5n2xje+sYySJD8mAebmKJCeA593DKrxmDt3bvGWt7ylLINGzVTkHN/1rnd1jx8deuihndTJhRd3DDQ+Z+zniCOO6KTk2Xbbbct8tO9tt9027os/99mWW27ZPY82mIow3nnHfffa1762+PWvf93Z2suybCpCmK9ELQ5j8KTPcNRWTvnFE8X/9blflabhS7b+VfG/9/51sfd5DxYnz5lXir//371uK1681WJjkX/ZpudVn+hXayqKiIhI22jq/42EqchQXl5oliajYEbdcccd5VBnjvO4447rbJWUmWQqtpV4Md988817zO7Yvuuuu3a2DMcgU/HGG28sXvnKV5Zp3AujSJwDUWN1IrIfeuihblRcaNRMxQsuuKA0nN/whjcU2223XXkOq6yySvH44493ckwuvLzzwwz7GWT68T35n//5n2W+OvcthiJDt+M6jFf/dDPovEljegLSTjzxxM7WXibDVGwzMQSfYesMX2/KKDzHH1rwfPGOPW4tzcK/m31jceUd/a8haeQh7/JfvLG46b5nOikyHtGv1lQUERGRttHU/9NUrMkomFEMcWaoM8c5FcO/lwU0FZcuTCGAMcRL+c9//vPO1sXUGV5Zh0GmIs+xUR4CDHEOdYZsE1EW8xBiyvHvqJ0730err756edzbbLNNOVSee4j/M93DVBERc4NMv9REq95rVfhODVMuvRZtMhVh0HljJpLWb+7TZd1UhDCFY+qGJozCc/yCWxcUL/3s4ijFA3/6cGdrf46++vFuxOJ/nTd4CgZZQvSrNRVFRESkbUQ/pS6aijXRVFw20FRcusQLOSYRz5mUOsMr67Csm4oMD8eUGmQq0rb77LNP8dKXvrQ8V6aQOOaYY8q/R+3cMZ8xocOI5sUac5HzmErjKsw1huUzPD9H3LPk62cqcryXXnppseKKK5b5GHb/4x//uHuPttVUzJ03n0s+n5xz7jt5JpiKt9xyS/kMzv0wMh6j8Bw/4/onS4MQ8fd43PvEH4s3funmcvGWz588+fOcLqtEv1pTUURERNpG9FPqMiNMxTDbYsESzu2HP/xhd4VkxN9sIy2FyAyOIafcEDCOk8Vc1l9//W6+ddZZp/jmN79ZzmuWAwOQfBwDQxWJvsEEiOM688wzy+vTjyjfT1WDkXNkHww/ZZ5I8nzoQx8qhxVeddVVZQe2CgYcRhx5Oe/f//735bxSlKfsLrvsUjzwwAM950JbMH/evvvu2x2WvcYaaxRf+tKXyoi1IPJQTxwL9bGPKnVMQfbL/uNYU8YrTztzDjvttFP3mBHHvcUWWxTnn39++RnJkd4r1TafKMO8jPYzjmh7zoUVj3n5Z8GU97znPcUVV1xRLFiwoGsK5EwSnhUYJOSnHPmoh/qYl5DnRL8ounT13tx8eKlZlPtspWAc7rDDDsXyyy9f5kfM0/ijH/2oPI6qqUhbRL6cSE8NEcrdfvvt3WHDmHNrrrlmGSUXEKVEOQzSaEtEu7zzne8spyCoGqcpnC+Lp2ywwQY95VmsZvfddy+vRY44l0GmYuThuL/97W+X1y1tA/5emsSxcJ14LrLwDPc12zj/7373u+VnEX384x8vt6dGdBg7mKsMjU5J6+Y+6XevjHd9wlwbZI4NMrCDNA/RbfPmzevZNtWmYtP7etB5015ch35D79N98S9zYfKZfOtb31puQ7Q9n//qd20wXrsz5H3nnXfOfva5z6N8v3adaPmY/5U8PK+aGD3pMxy1kbNvfLIbeVgnUrEOrBD9zQseKlba87buXI0II3L1b99RXP27hYvasZN5ETfe90x3WPWOpw9eFOecm+aXkZWIv6vc9uCzxUZH3V3ui/o4t//5pZuLbU++t7j/yaU3j270qzUVRUREpG1EP6UuM85UZBEXzLQwf6oiDWMvSI2iqlLjg84e5l8YYzlhwLHgC22dEkbcJz7xieLggw8es3rzUUcd1cmZJ8r3U/ryR2TF2muvnc0X+vznPz9moZvUVMQA3GSTTXrKcOxVU5E5p9Zdd92efCFMUxY1mDNnTvn3oDwpU2kqYkYNujdC1XskaLupyD2KkRLRazkRSRiGQ9Uk4ZkQwzdzmjVrVvGd73ynr6kY8+INMsNYkIm6MJKqn5Pg3HPPLeuo7j/09re/vZs+rKnIQhrpwiaIIbdhhrMSLEZEmp4TeXI/JozXloj2/MUvftEpsYQ4F+ZVZH7FHBdeeGHxuc99rjSvgrQNqvfGdBPHQpvyvInjCnEfQpiHbEuHOqdmY3UYatSNacf9RDtGvVV94AMf6LvQzXjmFqTm4AEHHNDZ2gtmOseKgRymwNIyFce7r2G88+YzRXpco5R0Xyysw/dC7KcqfmDIRSQP2j8/aAy6nltvvXVp0vN3rl0nWj6INmi6Wv0wz/Hp5nePPldGHmLAsbIzxuLC58b+0FgHbveT5swr6wkjMSeMvs2Pm1v88U+LPx/Pv/CXYt0j7irT3r7HrcUjT+W/C6gfwzCXj7pmn3pfudBMuq9UHNcPrnqsrGe6iX61pqKIiIi0jein1GVGmYq8QBJ9hrlH3TfffHNZ7zXXXFN89rOf7RpCBx10ULfzhvFEHiKHSOMFGPOJbakpxctrRP1xvAxvw3jCnMPI/MxnPlOmYRgSEZl2DqumIMdyww03FPfee29xyimnZCP2UrhmHA8vrWuttVZZBxF1bEOkw3XXXVdG3JGO+YmBSYQKeWiDHXfcsWtocrxE1ASpqRjljz766PIcKYuhyjnFubAf2px8P/jBD8pzQZhOaTthHGJysgovdXE8RHXGcey111495tJUmYq8vBJ5SRrHh3GKoUldHBcmTVxDlDN6224qXnzxxd3oQky3iJ5lgR/u7zAbY7631FTk2tI+bEeYZdzjmCNXX311ed+lZXPGYayS22/oJHD9X/e61/V9Wb/++uvL86cejpfj5vg5DyKEX/WqV5VpoTgHoos4Vq7j3/zN35RpGKxsQ6Snhgii/q997Wtl3RiiRM/RDphQ6cInRGny2aIe8p5wwgnFP/3TP3XTq+YL9zPmRaQzLBbDjOcK50I7x3XCeGF7Smqasc+6RDlUvTemm/RYEIuu8CME5485RzRdes/RDphzKWFSV4ehRt20Ifch15F7D4OStqStYygy6reKNM8K0vuZa0D7hznYpE3TctNpKqJ+93Uw3nnzbOs392l1Xyi9v9NnBeI5QqR6Sj9T8dZbb+0aglxb7o3cZz+eQdV2nWj5lGgD8jZZrX6Y5/jSIF39GfH3yl//dXHwJY+Ui7GE+TceRCD+39svjhB87ewbi/0vfrj4zUPPlhGCRCN+9ewHyu2k/+221xc/u3PJ9T79V0+UZmO/CERIDdAvn7Xk+4LbmUjEiLhkpWrMTYZq3/3Yc8Whlz1SvOnLi8txbpzvdBP9ak1FERERaRtN/b+RMBWbqmokpXMNYnZdcsklYzpnGAVhLG688cY9hhoMMrN4WSK6gfTZs2dnhy3SrsxxRh6i99LhZqmpuOmmm47Zd13S86yaWrycMVSLNIw8DNUqdFwxRMLQS42zqql4+umnd1J6Sc8lF2nIfYZRGHlo66oxQp6vfOUr3fS0PQZdh2AYU5EXQ847Z/oGaRsM2v9UMMzLaGpycH8TOcTLMuUxwaqwjTTyoNRUjHnt2M5qt9XoLtqL+zvKVk1FniX/9m//VqYxHQDXOEcMLcy9rFMmotOon6H6VYggTCOx0nMAjomypFVNoKoh0s9swiCJPJxz7l5J66qaI+O1JfD5CmOxeg5HHHFEuX2QOZsjNfKaGGBTQXosOcMQYlEf8uSi4tJ7Oh2GmtbN/YyRVYX7ZIUVVijzcA34vqtSp51jjsGm5tLSNBX73dfBeOfNNtJyc59W91XnWVE9npypmH72+Vzkvn8wB9PPftquEy1fhe/8uDf5TqlLPL9DbYWP0onXzusaflUR/fe/9/51sd9FDxcPzs8PIU6jDRnK/PO78sPdr7vnD13jMV3ohXrf+tXFq1B/5oS55TFVOebqx8t0ylNPcNlvnypNStI+dfQ9xTPPj420fPwPfyr+z36/LfOw2jWrXk8n0a/WVBQREZG2Ef2Uusw4U5G58jjHHEQukQfT45577ulsXcwgM4sXFNIw0VKzsArDg2OuxdSwS424733ve52tzRlkKjLMmEhN0qrtk5IaZ6nBmW7nHDiXHOm5EAmX6wRfdNFF3Tz9joXtpBNZSjRJMFWm4kknnVQO1atGaFaJ8hjQfD6mi2FeRlPjKBb34CV4kKlAWrxUp2ZWRBmybyK+cvDciFV6q6ZiaqLsuuuuna152G8uXxg4pA2ayyw1/YY1FYmW7PdZ3m+//UpDgWjEnBkWhDmy8sorF088sSQSpm5bYq7SZhhqPJuBYb4M96V8vxV4+5GabdVzn27SY+l3P8R9MKid4n5N86R197tP2LbhhhuWefqZZ3GvYAATRZmDH2Goo+kw2KVlKg66r4Pxzpu2i6H71edruq9B1y01hPk3NR5zpmLdz35Er5IvbdeJlq+S/kjCfdSvviq0Saq2w7BnVnfGQOw3jJjtmIeYdCnzn3mh+OAhdxb/Y8ebiq1O/P2iNuokVCBqMaIGq/Mn8n+2/69F6fc9sfgZGGAUrnbwHWX6fx54e9c4ZD+YkGzHlOxnesJ/3/5U8fLPX19GNB5/zeOdrdMDnzOkqSgiIiJtI/opdRkJUxGzjuHFDCOuo6ohmJptg0y7MLLIS5mUfmYU7fbVr361azQxxJcX1JyIbmD4NHlZrCTMzdSIu/zyy8ttwzDIVAzDtGrS5WBYK3mZwD/mbEtNRRZ06WfopeeCeZgj8hAV2G/1zH7XYqpMxX7wUku0JcO7ub7p0G32M10M8zKaGkecNy/A45kKpJGHvGHIpS/Qg6IMgfYmX9VU5O8w86pGXxXuj9zwSob0Ux7xdz/SKKJhTUXOt6lpzLOSaE+G+GMkxrFiHkU0brqPQasK5+CZvOeee5ZluQcYCt6E1Gyrnvt0kx4LUx9MJmnd1c9/SphX6fVJ4T6PYer/+I//WM5vyXcl8C8GVAynZaGZJiwtU7HOfT3ovIP4nFeN7Sb3N2Yy+aoRjzlTkXuEbf0WiAkw7+Ozl7brRMtX4bNIFGb1OMdjmOd4W2DIM0Of9z7vwazJ+JbdbimHFo/HC3/+S2kknnfL/HLOQxZNiTo+ceSSuT2B4dBEHOZMv3QxFyIWg3l/+FN5fGz/0GF3lmYk+8vpl3Of7u5/6xMHTzMz2US/mmH5mO+MHqG/hXi2o1/96lfdfKHcNqWUUkqpqVBdZtScijmTKYU08jQxFfkbk420JkrrSY24QS884zHIVGzSlhh9MQQ66uFYw1QcZMjVOZfIk2vnoN+1qGMKDmsq8nLMkEsMAqIWow1yGjVTMV7Uxxsym75UhyGXGiBE2Q2Ca8uL+yBTcTwTiePLDa+MyLVq3VVSY2NYU3E8o4B7BbN5q622Kl7/+teXZfopNa2GNZPS42a4MJHHTUnNtuq51yWuQT/VrXcyjqUfdeuOz0Q/UxGIDGV+1ZhvlDLpfcL8nERLVk238ZgMUzG9J3KKepvc10HuvFMi8q/6PEn3xYJWg+hn9MV1SY817rvqM6EK/Rh++Kge80TL54jjHO+ZmjLMc7ytEBn4o188Uaz4lVu6puBHv/u7MfMt8v8zrn+yjCaMFZj7qWoqsg/KkUY0JEOqA4ZKs505FZlbMWDexJhnsYmq+55q+PwiTUWllFJKtVV10VRMGMZU5LjCwGqizTbbrGxbqGPE1aGOqUik5Hgvlbl6lnVTkfseMzFnJPKSucMOOxTnnHNO8eUvf7ncNqqm4nimQmoKhCGXGiBVk64KzwmMjqrxF9upo46JFEOE0+sXxkC17iq5cwgGHUdablA78XzETCRfVa95zWvKCCYWJ2KRIrZNtqn4zne+c6Ax0o+6Ztsg4hr0U916J+NY+lG37vhMjGcq7r333t35LSmT3ieYiscff3zjYYmjYCpWzzsl5j6tGoLpvsZ7VvS7TnFd0mON+27QtQqifHrMEy2fI/LVqTMY5jnedhj2/K/f+k1pzP39F28sbnngmU5KUdz+8LPlfIVVA48oR4Y8b/iDu4sjf/ZYN1owZ+yx+jRpK+x0U3HnI4vNwyeffqFY5RuL91mdbzGdo7GJGEqdm3txquDzi+gH0temz+3wZxEREWkD0U+pi6ZiwjCmIm0UC7wwDJp2bEodI64OOTMwaNKWueNZ1k3F2B9iXkWG0VMPnfmUybonmzLMy2juRX0UIhWB6Q7Imw63DmOgWneVQcZGehxVw6mu+RLHgZhX8dRTTy3biOdoSs50SNtyPNOiCvPO7bbbbmXZN77xjePOjVeln4nThPTcc6pb72QcSz/q1j2eKcQLPPNZkof2ZsGXuMaYbueee275WSSdxZ2aMJH7IEjv5Zyi3rr3dTDovFPiXkjnxEz3Nd55RaRi9fMc1yU91tiXkYpTyw33Pl2agKyI/K0LH+psHZ9YMAURlQhPPftC8W/7Ll4IBRPx40feXVx5x8Liiad77yWGIcecijlTMV3hGYMRYlh0bmVojEcMSPJX52hsE9zzSFNRRERE2kb0U+qiqZgwjKlIezE/Imlp9GET6hhxdRhkKsacioOMvCDmVFxrrbW6L2BtMxUH3RPMqcmLIfnqmIpcM64d2zGIq6uVBum1HjVTkfOu81I93pyK482TRnuTr2oU8HcYIFHvIOI40gUw0jkVMR37weIpzAWX21d6HFXDqY75wjXHRCDPKqusUjz+eH5y/4jkIl9qWjVpS64ZkY/cb7Efns2xGM54Bm+VumbbdDCVx1K37jCF+pmKfE74vLBwB/Mn5oiFYpoYSzAZpmJd6tzXKXXOG3iO8wNCWme6r/QHgRwxp2J1nte4Lmm9YUByTINW2R5vTsVhy1ehf7QszqmYGnJrHnrnmKHM/cBIpAxzH5594+I+0AW3LihNP7bvfMb9RT8/jMhGIhzJlzMVKbfRUXeX6bEgC/Mf8n+iFYlaTHnkqT8Vb+9ER0539GETol+tqSgiIiJtI/opddFUTBjGVARWciaN1ZUHLbTCismcywYbbFAccMABZbtDHSOuDul5VusZZvVnjvXRRx8ds31pmooHH3xwuZ05D+PYqvDSGMOYq+eau44sXMMCNmwnvR8sAMK1I9+omYrp6s/HHHNMZ+tYYjVblBpyMRz57//+7/su9EP0VqxMXDUVUxOljhkWplxqAjDfZSzAwnxt/QyLdAXXyTYVme/qla98ZZlnkOlw5513FiussEKZr2paRVtyHfutjpuah1XzkWcH25suJlPXbJsOpvJY6tYd5lU/U5FnB+kY1P1W+Y77gWHQTea5bLOpWOe8IQz29IeKdF/c/3wOcmCSY8qTj/uc+z2I65IeaxidbN955537miusVs2q1eRL23Wi5auk5uOytPozBhxmIoYc0Yqn/GLJqvX9wHgM0y8d/kykI9tQRC/mYHVpzEjy9ZvXkGhEDEoWZrnotgVd0/DLZ41dcZ15F5l/kXSGQTMcuh9EPL52UZ1EQn7j/PqRmZNB9Ks1FUVERKRtRD+lLpqKCf2MLIhj2XjjjYt58+Z1ti6GKIt11123TN9kk01K86kK7cvE9+TB8EqjJeoYcXUYZCrycrbNNtuUaaymzaTgVei4YiqFIXfIIYd0O7FtMRVPOeWUcjvHeOGFF3a2LuGhhx4qr0EcQ/V650xFzElMSrZvv/322ZfuBQsWFLNnz+7WO2qmItGX73rXu8qX4Le85S3Zl322kUYelBpyLN4TL9sYeqkJANwnXJuYg61qKqaRPeNFMAXsn/wxvJJ9cA+zjf2wv+pL1ty5c/ueA3BMEzEV05WlV1111WxUK8+H//iP/+geQ9W0So2Lfm150kkndY3Rww8/vJOymDDN+plh/ahrtk0HU3ksdesez1SM+2+QEZeag03Oo82mYp3zBu5TVn8mbzxn032h3P3Njw9bbrllN8/JJ5/cSVlMzlTkefHxj3+83M7zjyHZVaqfu7RdJ1q+SkRSk2/QD1FV0mc4aiPn3zK/NBQx5V6x7fXF4Vc82jdiERNylzPv75qCnzr6nu5iKiziwjb0tXMeXHS/lJt7YDh0rOCM+pmK6YrOq3/7jq7ByArQOdJz+D/7/bac97EKEY7/vv/iRWAYSo3BOJ1Ev1pTUURERNpG9FPqMhKmIiYYwx2Z566uWCEvjIvJMBUjbY011iiHB2MohSlFR485tcKMY4EGFmq49957S8MKEy3mXUQ77rhjjylXx4irwyBTEYik4dhI51+i/ng54lyuueaa8rjiHDbddNOeSMC2mIocL/cDaWk7YyYyxG3ttdcuPvzhD5cRc+SpXu+cqch9stdee5XbEdeK9qBdqJuFGKg30lHOVIxjRhO5jjmGeRmtmhwXX3xx1/R71ateVeyzzz6lCYf4m23xQo1SQ457HMM10phLkM8B5gjRWpjtadmqqQgRoVd3qChtWB1eWTUNt9hiizLaD7OPCMx40Q9NtqmYmhOIaCsiI2kHIji5v6rtWDWtqqZKzMvIOXAunFOkYcRWjcswzYiQo+3rEuVQEwNsKpjKY6lb93imYgzP7XcvQGoOEkFal7Rc20zFOucd8MwjL+Yiz4h0X2GKp58RDPXUuOP7prqPnKkIrJI7a9asMo1VqfmRh89cfPajPUPVdp1o+ZSI/E4jqeswzHN8usG32vu8B7tGIXrVdjcU63//rtJgPHnOvPJf/s/2yPOW3W4p7n5sySrM6VyIzKm4yTH3lCYgcyhiJjLHItujPOpnKgJRiWneQUObMUE/few93bxEIx50ySPl8SEWh0lXrd78uLk9K0tPB9Gv1lQUERGRthH9lLqMhKk4jFLTaDJMxeuuu640FNN9YMoFtN+xxx5brLbaaj15qmIV4eo8bHWMuDqMZyoCEWdVg6wqVoiuDi1ui6lIp5rIln7tjNGIqRz3TvV650xFwDzEGEvrSsX+uN4Yc/w/d+xxzGgi1zHHMC+jVUOFtuPlOYzFqtjOnJERiVc15HgmfPKTnxxTLsSiDrvvvnv5d85UjBfx6oqx/YghhunwSrjhhhuKFVdcccz+Q+9+97uLlVZaqfx7sk1FwIiIORv7CQOVaEP+zrUFbRlRXv3EuWN4VAnTLFfvIOqabdPBVB5L3brHMxX7mVspqTlYvdcG0WZTsc55BxGxFz8UpPtiSolBzwui+3ORvoP2zzOE51+1rhCGfERk59p1ouUDrjV53va2tw0cIl4lfYajtoJ3deK180ozLoy3QSLi74Enn++UXsJRVz3WjRjMifrZDwYj/2dhFxZ4yYEhGVGNGJ7HX5OfzzZY+Nyfy2HZqTlaFWnkIe90w7MbaSqKiIhI24h+Sl00FRMGmYp05i655JLuMFmEAUN7pTBv4oEHHljmSyMXt9tuu+Kqq64qO4dV6hhxdUjPc1A9XFsiK3lpCnOOY9xpp536HmNbTEXgWjBUd5dddimPm3z8y/+Zdw+amorAvX7YYYcV66+/fpkH8ff+++9fRshBugjM6aefXm4L2m4qBr/97W9LQ+sVr3hF+WKMmci8fbfddlvPnIE5k4RnBavevuc97+makxwP85QxRDzm+8sZXpgOschJXQMmohuPOOKIzpbFcA9j8rKQC+mIvxmyjyEexsZUmIrAufADwfLLL9/dP39vtdVWZftCOo8bC3pU4T6+9tprizXXXLN7LRCGKAsr8RzOEaaZpmKeunWHeaWp2Eud8w6qc5+m+6IeonK591//+teX2xCmP88QniU5xts/bVf97FHnFVdcUaaF4d+vXSdaPj1HpmNoYvQM8xxfmmC2nTRnXrlAyv/Y8aauQce///NLNxebHTe3nLNwUBNce/cfyiHLDKWmLNGJrDD9zQseKuY/s/geOPSyR8q0QUOaiUokOpF8b/3qrcWD88eamFU4ruvvfbpY54i7ilk7LDFIX/2FG8pjuvp3Cwce+1QS/WpNRREREWkb0U+pS6tNRRFZzHS9jPI5D9ON4eRNiQgeoh1zUXaRTjRQv1W2ZTBxjZqaitKMMLcGzQGaGkxNTMU2U+e820pq1vIDUlPqlI/PH/OiEvnfhOl6jkv74T5CmooiIiLSNqKfUhdNRZERYKIvo3x+PzNrVnHG3/1d8cDnPseqLJ2UXhhazgt1zxDlM84orlx99eL/e+1ry9WveSbk4BkS8w3utOKKxXNE+uy9dyd1MbGCM5FNzLNWGyJO+xxzFgzRLbccs/+BpGXq7mu6yiRwLUfWVLz//va27znndP5YTJhr/SLWYFk2FQed93SD2ff2t7+9eOtb31qcddZZna1jSReUSqPUJ1o+ZY899ijTedY1NV0n+hyXZYfoV2sqioiISNuIfkpdNBVFRoCJvowu2GijRZ/25Xq1776d1MWki6B05wr77Gd7yuw8wAxkODhDor+b5C/+9m87qUuIaMVGL+Vbb724vsoxZ6kc81Bl6pSbrjIVYlh13bkpWwUmX93zns72pdz73tf5z2KDnEg97lOG4Pcjhv+SL1YpbxOf2Kko/mW96dEN+ZksJoWYX5V2Xn311cs+ShUin2OFeZ6RLHoUTLR8wNy7b37zm4eKUoT0GY5k5hL9ak1FERERaRtN/T9NRZERYEIvo0ce2TVYzl2kuZ2/0VNf+UppJjJnYQz7Q4cffnhPuT+94Q3dv3d9yUtKA4WXbiKA+BfjhRVVt+jkKbXmmkXxjnd0DmIJjzzySDlvYKMXcwybqHdQRFhyzOX+3/Sm4csMKjddZYByCZgfsZjEZpttNlrDyBfdL61sX/J0TEW+D88///zyc0YbE707iIhcw5BnXtI2vfgvK6YixI8RiBWlmS+TKRYQq6ezinqks1J99TpMtDxEHVtvvXX9H0QSJvQcl2WK6FdrKoqIiEjbaOr/aSqKjAATehn9678uTZOn11uv+Nd//dfiFYv+vmqR2IbeuUjxMo322Wef4s8339wtV2yyCSujFE9gEPL/RaqWQSst0nMvetGSMtBnQZ+zzz67jGpcb9ExsZjDuCx6LhXveU93/wXHV+XWW3uPGRYd91BlBu1ruspAlKtwwgknLCqypO0xhDF4R4KpaquJtC/p++7bYzwhzKfqav1VWDRqhRVW6Ck32YvPTDXDnPd0g3nO9AvpcebEYkn9IhEnUp5FuljEBfM4Fu5qyoSe47JMEf1qTUURERFpG039P01FkRFg6JdRTL1FL8rFSisViz7YpYF32mmnFe//l38p7u4YgLcu0v+zwgpLVi6mzNve1lOuZN684oVO9NcdL3tZ8deL/uUlHHNwlUX55i2//NgyfeB5Q7QPZTEYa7Fo/4ve6pfs49lnOwmL6HfMMEyZ6r6CJmXSfQ1TJt1XBV4uTznllO6quiNlKkK/8x62fSk3TJl0X4u++8Jc475k5feHHnqok3kwt99+e7HqqquWZVFbTMVlKVIR6Ktceuml5RDmdMX017zmNaVhyGrqg4yXYcuzjehF7ovqqv9NGPo5Lssc0a/WVBQREZG20dT/01QUGQGGfhn9xCeK4uUvL4o77uhsSGAbdS16qS4237yzcRGUYVuu3DBlJpPpPOa0XNCkTLqvYcqk+1oWyZ33sO1LuYm0b67cMsCyZiqOOkM/x2WZI/rVmooiIiLSNpr6f5qKIiOAL6MiIqONz3EJol+tqSgiIiJto6n/p6koMgL4MioiMtr4HJcg+tWaiiIiItI2mvp/mooiI4AvoyIio43PcQmiX62pKCIiIm2jqf+nqSgyAvgyKiIy2vgclyD61ZqKIiIi0jaa+n+aiiIjwKxZs3peRp9NV7EVEZFWwzM7fYbzTJeZS/SrNRVFRESkbTT1/zQVRUaAlVdeueeF9LzzzuukiIhI2+GZnT7DeabLzCX61ZqKIiIi0jaa+n+aiiIjwOzZs3teSN/73vcarSgiMgLwrOaZnT7DeabLzCX61ZqKIiIi0jaa+n+aiiIjwJw5c3peSBEvqUS/aC6KiLQPns08o6uGIuKZLjOX6FdrKoqIiEjbaOr/aSqKjAjVaEWllFKjJ6MUJfrVmooiIiLSNpr6f8vRWQlT8fnnny87NPy6rqko0j7WWWed7EuqUkqp9otnuEj0q1NTkb43fXD64mEq0kfXVBQREZHppKn/p6koMmIYsaiUUqMnIxQliH61pqKIiIi0jab+X9ZUjOHPCxYsKObPn9+4UhGZXPgspjAfFy+orCA6a9as7AusUkqppSeezTyjeVZX51CsPtNlZhH9avrY3Av0uWP4s6aiiIiILE2a+n8DTUUjFUVEREREJo/oV6eRipqKIiIi0gaa+n+lqYjowMRCLQzBePrpp8uOjpGKIiLSRpZbbrnihhtu6PxPRGQ0iH41fWz62vS5Y/hzLNRSNRQ1FUVERGQ6aOr/jRupqKkoIiJtBFPxJS95icaiiIwU0a8OU3FQpKKmooiIiEwnTf0/TUURERlJMBX5nsJYvOmmmzpbRUTaTfSrm5qKGosiIiIy1TT1/3qGP6emIkMxFi5cqKkoIiKtBFMRWOhAY1FERoXoV9PHpq9Nn7tqKkb/XFNRREREppOm/l82UjHmVKSjw8ta00pFRESmmjAVQWNRREaF6Ffz3ApTMeZUrEYqokBTUURERKaapv7fmEhFJogOU5HhGJqKIiLSRlJTEcJYvPnmmztbRETaR/SreWbR1w5TkT54v0hF0FQUERGRqaap/9djKqJYATqdV7FppSIiIlNN1VQEhhNqLIpIm4l+dXU+xVj5eZCpqLEoIiIiU0lT/285Oid0WmIIdGoq8suppqKIiLSRnKkIYSzeeuutnS0iIu0h+tX0selrV03FQYu0xL8iIiIiU0FT/2+MqZgbAt20UhERkammn6kITz75pMaiiLSS6Ff3G/o8yFQUERERmUqa+n89piIKUzEdAt20UhERkalmkKkIYSzedtttnS0iIkuf6FdXhz7TB4/+eNVUnEwuvfTS4p//+Z+Lq6++urNF2sS8efOK1Vdfvdh1113Le0JERGQ6aer/jYlUzEUrRqVKKaVUWzSeqQgYiy9+8YuLU089NVuHUkotLeWiFKuRipPNGWecUbz0pS8tttxySw2rFnPdddcVr371q4vNN9+8NJ5FRESmi+in1KVrKvaLVqSzk3aAlFJKqTaojqkIGotKqTaKPna/KMUwFauC9O8maCiOFqeffnr53eX1EhGR6ST6KfUoiv8fv1hrGwvEt0YAAAAASUVORK5CYII=;" vertex="1" parent="1">
                    <mxGeometry x="50" y="-160" width="1301" height="135" as="geometry"/>
                </mxCell>
                <mxCell id="4" value="&lt;font style=&quot;font-size: 26px;&quot;&gt;a + ar + ar^2 + ar^3 + \dots + ar^{n-1} = \displaystyle\sum_{k=0}^{n - 1}ar^k = a \bigg(\dfrac{1 - r^n}{1 -r}\bigg)&lt;/font&gt;" style="text;whiteSpace=wrap;html=1;fontSize=26;" vertex="1" parent="1">
                    <mxGeometry x="40" y="-240" width="1280" height="50" as="geometry"/>
                </mxCell>
            </root>
        </mxGraphModel>
    </diagram>
</mxfile>